<svg width="335" height="121" fill="none" xmlns="http://www.w3.org/2000/svg"><g opacity=".7"><path d="M27.272 18.504c.521-.616.782-1.352.782-2.206a3.59 3.59 0 0 0-.782-2.277c-.473-.712-1.183-1.068-2.13-1.068h-5.966v6.477h5.966c.947 0 1.657-.309 2.13-.926Zm-8.096 12.811v6.975h6.605c1.089 0 1.894-.356 2.415-1.068.568-.759.852-1.59.852-2.49v-.072c0-.901-.308-1.684-.923-2.348-.569-.665-1.35-.997-2.344-.997h-6.605Zm8.452 19.216H3.338c-.52 0-.97-.19-1.35-.569a1.85 1.85 0 0 1-.568-1.352V2.633c0-.522.19-.972.569-1.352.378-.38.828-.57 1.349-.57h23.58c6.723 0 11.67 1.234 14.843 3.702 3.22 2.42 4.83 6.097 4.83 11.031v.214c0 2.04-.592 3.867-1.776 5.48-1.184 1.565-2.486 2.704-3.906 3.416 1.894.76 3.48 2.111 4.758 4.057 1.326 1.898 1.989 3.985 1.989 6.263 0 10.438-6.676 15.657-20.028 15.657Z" fill="url(#a)"/><path d="M72.148 36.653h21.875c.52 0 .97.19 1.35.57.378.379.568.83.568 1.352V48.61c0 .522-.19.972-.569 1.352-.378.38-.828.57-1.349.57H57.021c-.521 0-.971-.19-1.35-.57a1.85 1.85 0 0 1-.568-1.352V2.633c0-.522.19-.972.568-1.352.379-.38.829-.57 1.35-.57h36.434c.52 0 .97.19 1.35.57.378.38.567.83.567 1.352v10.035c0 .522-.189.973-.568 1.353a1.84 1.84 0 0 1-1.35.569H72.149v4.484h19.744c.521 0 .971.19 1.35.57.379.379.568.83.568 1.351v9.253c0 .521-.19.972-.568 1.352-.379.38-.829.57-1.35.57H72.148v4.483Z" fill="url(#b)"/><path d="M103.207 16.37c0-4.84 1.989-8.778 5.966-11.815C113.198 1.518 118.453 0 124.94 0c6.534 0 11.86 1.59 15.98 4.768 4.166 3.18 6.25 6.5 6.25 9.964 0 .427-.166.807-.497 1.14a1.364 1.364 0 0 1-.995.426h-14.204c-1.089 0-2.083-.403-2.983-1.21-.9-.806-2.107-1.21-3.622-1.21-2.273 0-3.409.665-3.409 1.993 0 .712.544 1.305 1.633 1.78 1.137.474 3.22.9 6.25 1.28 7.055.902 12.074 2.563 15.057 4.982 3.03 2.373 4.545 6.003 4.545 10.89 0 4.84-2.225 8.801-6.676 11.885-4.403 3.037-10.18 4.555-17.329 4.555-7.15 0-12.76-1.47-16.832-4.413-4.072-2.94-6.108-6.524-6.108-10.746 0-.427.142-.783.426-1.068.331-.332.71-.498 1.136-.498h13.494c.995 0 2.084.474 3.267 1.423 1.231.95 2.912 1.424 5.043 1.424 3.551 0 5.327-.665 5.327-1.993 0-.854-.64-1.495-1.918-1.922-1.278-.474-3.693-.949-7.244-1.423-12.216-1.613-18.324-6.832-18.324-15.658Z" fill="url(#c)"/><path d="M155.103.712h41.619c.521 0 .971.19 1.349.57.379.379.569.83.569 1.351v11.459c0 .522-.19.973-.569 1.352-.378.38-.828.57-1.349.57h-11.79V48.61c0 .522-.189.972-.568 1.352a1.84 1.84 0 0 1-1.349.57H168.81c-.521 0-.97-.19-1.349-.57a1.848 1.848 0 0 1-.568-1.352V16.013h-11.79c-.521 0-.971-.19-1.349-.569a1.85 1.85 0 0 1-.569-1.352V2.633c0-.522.19-.972.569-1.352a1.84 1.84 0 0 1 1.349-.57Z" fill="url(#d)"/><path d="M6.463 71.11c4.356-3.512 10.109-5.267 17.258-5.267 7.15 0 12.879 1.779 17.188 5.337 4.356 3.511 6.534 8.47 6.534 14.875v11.103c0 5.599-1.681 10.13-5.043 13.593l5.54 8.043c.142.284.213.569.213.854 0 .332-.142.64-.426.925-.237.285-.568.427-.995.427h-13.92c-1.184 0-2.178-.546-2.983-1.637l-1.988-2.491a40.02 40.02 0 0 1-4.12.214c-7.244 0-13.02-1.685-17.329-5.054C2.131 108.616 0 103.658 0 97.158V86.055C0 79.602 2.154 74.62 6.463 71.11Zm13.423 30.674c.947.949 2.226 1.423 3.835 1.423 1.61 0 2.889-.474 3.835-1.423.947-.949 1.421-2.396 1.421-4.342V85.486c0-1.898-.474-3.322-1.42-4.27-.947-.997-2.226-1.495-3.836-1.495-1.61 0-2.888.498-3.835 1.495-.947.948-1.42 2.372-1.42 4.27v11.956c0 1.946.473 3.393 1.42 4.342Z" fill="url(#e)"/><path d="M85.479 66.554h13.92c.52 0 .971.19 1.35.57.378.38.568.83.568 1.352v28.61c0 6.643-2.06 11.649-6.18 15.018-4.118 3.321-9.73 4.982-16.831 4.982-7.055 0-12.666-1.661-16.833-4.982-4.119-3.322-6.178-8.327-6.178-15.017V68.476c0-.522.189-.973.568-1.352.378-.38.828-.57 1.35-.57h13.92c.52 0 .97.19 1.349.57.379.38.568.83.568 1.352V97.3c0 3.654 1.752 5.48 5.256 5.48 3.503 0 5.255-1.826 5.255-5.48V68.476c0-.522.19-.973.568-1.352.38-.38.829-.57 1.35-.57Z" fill="url(#f)"/><path d="M125.38 66.554h15.412c1.704 0 2.769.783 3.196 2.349l15.837 45.407c.048.142.071.38.071.712 0 .284-.165.593-.497.925a1.442 1.442 0 0 1-1.065.427h-13.139c-1.42 0-2.344-.593-2.77-1.779l-1.704-4.698h-15.27l-1.705 4.698c-.426 1.186-1.349 1.779-2.77 1.779h-13.139c-.426 0-.805-.142-1.136-.427-.284-.332-.426-.641-.426-.925 0-.332.024-.57.071-.712l15.838-45.407c.426-1.566 1.491-2.349 3.196-2.349Zm3.693 29.465h8.025l-4.048-13.238-3.977 13.238Z" fill="url(#g)"/><path d="M183.629 101.784h19.673c.521 0 .971.19 1.349.569.379.38.569.831.569 1.352v10.747c0 .522-.19.973-.569 1.353a1.841 1.841 0 0 1-1.349.569h-35.795c-.521 0-.971-.19-1.349-.569a1.851 1.851 0 0 1-.569-1.353V68.476c0-.522.19-.973.569-1.352a1.84 1.84 0 0 1 1.349-.57h14.204c.521 0 .971.19 1.35.57.379.38.568.83.568 1.352v33.308Z" fill="url(#h)"/><path d="M228.049 116.374H213.56c-.521 0-.97-.19-1.349-.569a1.85 1.85 0 0 1-.568-1.353V68.476c0-.522.189-.973.568-1.352a1.84 1.84 0 0 1 1.349-.57h14.489c.521 0 .97.19 1.349.57.379.38.568.83.568 1.352v45.976c0 .522-.189.973-.568 1.353a1.843 1.843 0 0 1-1.349.569Z" fill="url(#i)"/><path d="M238.609 66.554h41.619c.521 0 .971.19 1.35.57.378.38.568.83.568 1.352v11.458c0 .522-.19.973-.568 1.353-.379.38-.829.569-1.35.569h-11.789v32.596c0 .522-.19.973-.569 1.353a1.841 1.841 0 0 1-1.349.569h-14.204c-.521 0-.971-.19-1.35-.569a1.85 1.85 0 0 1-.568-1.353V81.856h-11.79c-.52 0-.97-.19-1.349-.57a1.848 1.848 0 0 1-.568-1.352V68.476c0-.522.189-.973.568-1.352.379-.38.829-.57 1.349-.57Z" fill="url(#j)"/><path d="M316.96 116.374h-13.92c-.521 0-.971-.19-1.349-.569a1.85 1.85 0 0 1-.568-1.353v-14.02l-15.98-31.671c-.095-.19-.142-.451-.142-.783s.142-.64.426-.925c.331-.333.71-.499 1.136-.499h13.352c1.421 0 2.415.593 2.983 1.78L310 82.638l7.102-14.305c.569-1.187 1.563-1.78 2.983-1.78h13.353c.426 0 .781.166 1.065.498.331.285.497.594.497.926 0 .332-.047.593-.142.783l-15.98 31.671v14.02c0 .522-.189.973-.568 1.353a1.845 1.845 0 0 1-1.35.569Z" fill="url(#k)"/></g><defs><linearGradient id="a" x1="167.143" y1="-4.655" x2="167.143" y2="127.03" gradientUnits="userSpaceOnUse"><stop stop-color="#fff" stop-opacity=".95"/><stop offset="1" stop-color="#fff" stop-opacity="0"/></linearGradient><linearGradient id="b" x1="167.143" y1="-4.655" x2="167.143" y2="127.03" gradientUnits="userSpaceOnUse"><stop stop-color="#fff" stop-opacity=".95"/><stop offset="1" stop-color="#fff" stop-opacity="0"/></linearGradient><linearGradient id="c" x1="167.143" y1="-4.655" x2="167.143" y2="127.03" gradientUnits="userSpaceOnUse"><stop stop-color="#fff" stop-opacity=".95"/><stop offset="1" stop-color="#fff" stop-opacity="0"/></linearGradient><linearGradient id="d" x1="167.143" y1="-4.655" x2="167.143" y2="127.03" gradientUnits="userSpaceOnUse"><stop stop-color="#fff" stop-opacity=".95"/><stop offset="1" stop-color="#fff" stop-opacity="0"/></linearGradient><linearGradient id="e" x1="167.143" y1="-4.655" x2="167.143" y2="127.03" gradientUnits="userSpaceOnUse"><stop stop-color="#fff" stop-opacity=".95"/><stop offset="1" stop-color="#fff" stop-opacity="0"/></linearGradient><linearGradient id="f" x1="167.143" y1="-4.655" x2="167.143" y2="127.03" gradientUnits="userSpaceOnUse"><stop stop-color="#fff" stop-opacity=".95"/><stop offset="1" stop-color="#fff" stop-opacity="0"/></linearGradient><linearGradient id="g" x1="167.143" y1="-4.655" x2="167.143" y2="127.03" gradientUnits="userSpaceOnUse"><stop stop-color="#fff" stop-opacity=".95"/><stop offset="1" stop-color="#fff" stop-opacity="0"/></linearGradient><linearGradient id="h" x1="167.143" y1="-4.655" x2="167.143" y2="127.03" gradientUnits="userSpaceOnUse"><stop stop-color="#fff" stop-opacity=".95"/><stop offset="1" stop-color="#fff" stop-opacity="0"/></linearGradient><linearGradient id="i" x1="167.143" y1="-4.655" x2="167.143" y2="127.03" gradientUnits="userSpaceOnUse"><stop stop-color="#fff" stop-opacity=".95"/><stop offset="1" stop-color="#fff" stop-opacity="0"/></linearGradient><linearGradient id="j" x1="167.143" y1="-4.655" x2="167.143" y2="127.03" gradientUnits="userSpaceOnUse"><stop stop-color="#fff" stop-opacity=".95"/><stop offset="1" stop-color="#fff" stop-opacity="0"/></linearGradient><linearGradient id="k" x1="167.143" y1="-4.655" x2="167.143" y2="127.03" gradientUnits="userSpaceOnUse"><stop stop-color="#fff" stop-opacity=".95"/><stop offset="1" stop-color="#fff" stop-opacity="0"/></linearGradient></defs></svg>