<svg width="883" height="319" fill="none" xmlns="http://www.w3.org/2000/svg"><path opacity=".7" d="M72.223 48.85c1.371-1.62 2.057-3.553 2.057-5.797 0-2.244-.686-4.239-2.057-5.984-1.247-1.87-3.117-2.805-5.61-2.805H50.905v17.017h15.708c2.493 0 4.363-.81 5.61-2.431ZM50.905 82.51v18.326h17.391c2.867 0 4.987-.935 6.358-2.805 1.496-1.995 2.244-4.176 2.244-6.545v-.187c0-2.369-.81-4.426-2.431-6.171-1.496-1.745-3.553-2.618-6.171-2.618H50.905ZM73.158 133H9.204c-1.371 0-2.556-.499-3.553-1.496-.997-.997-1.496-2.182-1.496-3.553V7.149c0-1.371.499-2.556 1.496-3.553C6.648 2.599 7.833 2.1 9.204 2.1h62.084c17.703 0 30.73 3.241 39.083 9.724 8.477 6.358 12.716 16.02 12.716 28.985v.561c0 5.36-1.558 10.16-4.675 14.399-3.117 4.114-6.545 7.106-10.285 8.976 4.987 1.995 9.163 5.548 12.529 10.659 3.491 4.987 5.236 10.472 5.236 16.456 0 27.427-17.578 41.14-52.734 41.14Zm117.223-36.465h57.596c1.371 0 2.555.499 3.553 1.496.997.997 1.496 2.182 1.496 3.553v26.367c0 1.371-.499 2.556-1.496 3.553-.998.997-2.182 1.496-3.553 1.496H150.55c-1.372 0-2.556-.499-3.553-1.496-.998-.997-1.496-2.182-1.496-3.553V7.149c0-1.371.498-2.556 1.496-3.553.997-.997 2.181-1.496 3.553-1.496h95.931c1.371 0 2.555.499 3.553 1.496.997.997 1.496 2.182 1.496 3.553v26.367c0 1.371-.499 2.556-1.496 3.553-.998.997-2.182 1.496-3.553 1.496h-56.1v11.781h51.986c1.371 0 2.555.499 3.553 1.496.997.997 1.496 2.182 1.496 3.553v24.31c0 1.371-.499 2.556-1.496 3.553-.998.997-2.182 1.496-3.553 1.496h-51.986v11.781Zm81.777-53.295c0-12.716 5.236-23.063 15.708-31.042C298.463 4.219 312.301.23 329.38.23c17.204 0 31.229 4.176 42.075 12.529 10.971 8.353 16.456 17.08 16.456 26.18 0 1.122-.436 2.12-1.309 2.992-.748.748-1.621 1.122-2.618 1.122h-37.4c-2.867 0-5.485-1.06-7.854-3.179-2.369-2.12-5.548-3.179-9.537-3.179-5.984 0-8.976 1.745-8.976 5.236 0 1.87 1.434 3.428 4.301 4.675 2.992 1.247 8.477 2.369 16.456 3.366 18.575 2.369 31.79 6.732 39.644 13.09 7.979 6.233 11.968 15.77 11.968 28.611 0 12.716-5.859 23.126-17.578 31.229-11.594 7.979-26.803 11.968-45.628 11.968s-33.598-3.865-44.319-11.594c-10.721-7.729-16.082-17.142-16.082-28.237 0-1.122.374-2.057 1.122-2.805.873-.873 1.87-1.309 2.992-1.309h35.53c2.618 0 5.485 1.247 8.602 3.74 3.241 2.493 7.667 3.74 13.277 3.74 9.35 0 14.025-1.745 14.025-5.236 0-2.244-1.683-3.927-5.049-5.049-3.366-1.247-9.724-2.493-19.074-3.74-32.164-4.239-48.246-17.952-48.246-41.14ZM408.8 2.1h109.582c1.371 0 2.555.499 3.553 1.496.997.997 1.496 2.182 1.496 3.553v30.107c0 1.371-.499 2.556-1.496 3.553-.998.997-2.182 1.496-3.553 1.496H487.34v85.646c0 1.371-.499 2.556-1.496 3.553-.998.997-2.182 1.496-3.553 1.496h-37.4c-1.372 0-2.556-.499-3.553-1.496-.998-.997-1.496-2.182-1.496-3.553V42.305H408.8c-1.372 0-2.556-.499-3.553-1.496-.998-.997-1.496-2.182-1.496-3.553V7.149c0-1.371.498-2.556 1.496-3.553.997-.997 2.181-1.496 3.553-1.496ZM17.432 187.068c11.47-9.225 26.616-13.838 45.441-13.838 18.825 0 33.91 4.675 45.254 14.025 11.469 9.225 17.204 22.253 17.204 39.083v29.172c0 14.711-4.426 26.616-13.277 35.717l14.586 21.131c.374.748.561 1.496.561 2.244 0 .873-.374 1.683-1.122 2.431-.623.748-1.496 1.122-2.618 1.122H86.809c-3.117 0-5.735-1.434-7.854-4.301l-5.236-6.545c-3.615.374-7.23.561-10.846.561-19.074 0-34.283-4.426-45.628-13.277C6.025 285.617.415 272.589.415 255.51v-29.172c0-16.955 5.672-30.045 17.017-39.27Zm35.343 80.597c2.493 2.493 5.86 3.74 10.098 3.74 4.239 0 7.605-1.247 10.098-3.74 2.493-2.493 3.74-6.296 3.74-11.407v-31.416c0-4.987-1.247-8.727-3.74-11.22-2.493-2.618-5.86-3.927-10.098-3.927-4.239 0-7.605 1.309-10.098 3.927-2.493 2.493-3.74 6.233-3.74 11.22v31.416c0 5.111 1.247 8.914 3.74 11.407ZM225.48 175.1h36.652c1.371 0 2.555.499 3.553 1.496.997.997 1.496 2.182 1.496 3.553v75.174c0 17.453-5.423 30.606-16.269 39.457-10.846 8.727-25.619 13.09-44.319 13.09-18.576 0-33.349-4.363-44.319-13.09-10.846-8.727-16.269-21.879-16.269-39.457v-75.174c0-1.371.498-2.556 1.496-3.553.997-.997 2.181-1.496 3.553-1.496h36.652c1.371 0 2.555.499 3.553 1.496.997.997 1.496 2.182 1.496 3.553v75.735c0 9.599 4.612 14.399 13.838 14.399 9.225 0 13.838-4.8 13.838-14.399v-75.735c0-1.371.498-2.556 1.496-3.553.997-.997 2.181-1.496 3.553-1.496Zm105.059 0h40.579c4.488 0 7.293 2.057 8.415 6.171l41.701 119.306c.124.374.187.997.187 1.87 0 .748-.437 1.558-1.309 2.431-.748.748-1.683 1.122-2.805 1.122h-34.595c-3.74 0-6.171-1.558-7.293-4.675l-4.488-12.342h-40.205l-4.488 12.342c-1.122 3.117-3.553 4.675-7.293 4.675H284.35c-1.122 0-2.12-.374-2.992-1.122-.748-.873-1.122-1.683-1.122-2.431 0-.873.062-1.496.187-1.87l41.701-119.306c1.122-4.114 3.927-6.171 8.415-6.171Zm9.724 77.418h21.131l-10.659-34.782-10.472 34.782Zm143.645 15.147h51.799c1.371 0 2.556.499 3.553 1.496.997.997 1.496 2.182 1.496 3.553v28.237c0 1.371-.499 2.556-1.496 3.553-.997.997-2.182 1.496-3.553 1.496h-94.248c-1.371 0-2.556-.499-3.553-1.496-.997-.997-1.496-2.182-1.496-3.553V180.149c0-1.371.499-2.556 1.496-3.553.997-.997 2.182-1.496 3.553-1.496h37.4c1.371 0 2.556.499 3.553 1.496.997.997 1.496 2.182 1.496 3.553v87.516ZM600.865 306h-38.148c-1.372 0-2.556-.499-3.553-1.496-.998-.997-1.496-2.182-1.496-3.553V180.149c0-1.371.498-2.556 1.496-3.553.997-.997 2.181-1.496 3.553-1.496h38.148c1.371 0 2.555.499 3.553 1.496.997.997 1.496 2.182 1.496 3.553v120.802c0 1.371-.499 2.556-1.496 3.553-.998.997-2.182 1.496-3.553 1.496Zm27.806-130.9h109.582c1.371 0 2.555.499 3.553 1.496.997.997 1.496 2.182 1.496 3.553v30.107c0 1.371-.499 2.556-1.496 3.553-.998.997-2.182 1.496-3.553 1.496h-31.042v85.646c0 1.371-.499 2.556-1.496 3.553-.998.997-2.182 1.496-3.553 1.496h-37.4c-1.372 0-2.556-.499-3.553-1.496-.998-.997-1.496-2.182-1.496-3.553v-85.646h-31.042c-1.372 0-2.556-.499-3.553-1.496-.998-.997-1.496-2.182-1.496-3.553v-30.107c0-1.371.498-2.556 1.496-3.553.997-.997 2.181-1.496 3.553-1.496ZM834.968 306h-36.652c-1.371 0-2.555-.499-3.553-1.496-.997-.997-1.496-2.182-1.496-3.553v-36.839l-42.075-83.215c-.249-.499-.374-1.184-.374-2.057s.374-1.683 1.122-2.431c.873-.873 1.87-1.309 2.992-1.309h35.156c3.74 0 6.358 1.558 7.854 4.675l18.7 37.587 18.7-37.587c1.496-3.117 4.114-4.675 7.854-4.675h35.156c1.122 0 2.057.436 2.805 1.309.873.748 1.309 1.558 1.309 2.431s-.124 1.558-.374 2.057l-42.075 83.215v36.839c0 1.371-.498 2.556-1.496 3.553-.997.997-2.181 1.496-3.553 1.496Z" fill="url(#a)"/><defs><linearGradient id="a" x1="440.5" y1="-12" x2="440.5" y2="334" gradientUnits="userSpaceOnUse"><stop stop-color="#fff" stop-opacity=".95"/><stop offset="1" stop-color="#fff" stop-opacity="0"/></linearGradient></defs></svg>