<svg width="30" height="30" fill="none" xmlns="http://www.w3.org/2000/svg"><path d="m10.475 15 3.013 3.025 6.037-6.05" stroke="#fff" stroke-width="2" stroke-linecap="round" stroke-linejoin="round"/><path d="M13.438 3.062c.862-.737 2.275-.737 3.15 0l1.975 1.7c.375.325 1.075.588 1.575.588h2.125a2.422 2.422 0 0 1 2.412 2.412v2.125c0 .488.263 1.2.588 1.575l1.7 1.976c.737.862.737 2.274 0 3.15l-1.7 1.974c-.325.375-.588 1.075-.588 1.575v2.125a2.422 2.422 0 0 1-2.412 2.413h-2.125c-.488 0-1.2.262-1.575.587l-1.975 1.7c-.863.738-2.275.738-3.15 0l-1.975-1.7c-.375-.325-1.075-.587-1.575-.587H7.725a2.422 2.422 0 0 1-2.412-2.413v-2.137c0-.488-.263-1.188-.575-1.563L3.05 16.575c-.725-.862-.725-2.262 0-3.125l1.688-1.987c.312-.375.575-1.075.575-1.563V7.75a2.422 2.422 0 0 1 2.412-2.413h2.163c.487 0 1.2-.262 1.575-.587l1.975-1.688Z" stroke="#fff" stroke-width="2" stroke-linecap="round" stroke-linejoin="round"/></svg>