<svg width="32" height="31" fill="none" xmlns="http://www.w3.org/2000/svg"><path d="m17.152 2.85 8.15 4.426c.95.517.95 1.993 0 2.51l-8.15 4.426c-.726.39-1.577.39-2.303 0l-8.15-4.426c-.951-.517-.951-1.993 0-2.51l8.15-4.426a2.408 2.408 0 0 1 2.303 0ZM5.498 12.774l7.573 3.822c.94.479 1.54 1.45 1.54 2.509v7.213a1.389 1.389 0 0 1-2.016 1.249l-7.573-3.821a2.825 2.825 0 0 1-1.54-2.51v-7.213a1.389 1.389 0 0 1 2.016-1.248Zm21.005 0-7.573 3.822a2.825 2.825 0 0 0-1.54 2.509v7.213a1.389 1.389 0 0 0 2.015 1.249l7.574-3.821a2.825 2.825 0 0 0 1.54-2.51v-7.213a1.389 1.389 0 0 0-2.016-1.248Z" stroke="#fff" stroke-width="2" stroke-linecap="round" stroke-linejoin="round"/></svg>