<svg width="208" height="55" fill="none" xmlns="http://www.w3.org/2000/svg"><path opacity=".7" d="M2.176.4H24.64c7.592 0 13.832 1.898 18.72 5.694 4.94 3.744 7.41 8.996 7.41 15.756v11.622c0 7.072-2.392 12.428-7.176 16.068C38.81 53.18 32.518 55 24.718 55H2.176a2.025 2.025 0 0 1-1.482-.624 2.025 2.025 0 0 1-.624-1.482V2.506c0-.572.208-1.066.624-1.482C1.11.608 1.604.4 2.176.4ZM19.57 15.61v24.18h5.07c1.768 0 3.172-.52 4.212-1.56 1.092-1.092 1.638-2.678 1.638-4.758V21.85c0-4.16-1.95-6.24-5.85-6.24h-5.07Zm58.482 24.18h24.024c.572 0 1.066.208 1.482.624.416.416.624.91.624 1.482v10.998c0 .572-.208 1.066-.624 1.482-.416.416-.91.624-1.482.624H61.438a2.025 2.025 0 0 1-1.482-.624 2.025 2.025 0 0 1-.624-1.482V2.506c0-.572.208-1.066.624-1.482.416-.416.91-.624 1.482-.624h40.014c.572 0 1.066.208 1.482.624.416.416.624.91.624 1.482v10.998c0 .572-.208 1.066-.624 1.482-.416.416-.91.624-1.482.624h-23.4v4.914h21.684c.572 0 1.066.208 1.482.624.416.416.624.91.624 1.482v10.14c0 .572-.208 1.066-.624 1.482-.416.416-.91.624-1.482.624H78.052v4.914Zm55.326-.78h21.606c.572 0 1.066.208 1.482.624.416.416.624.91.624 1.482v11.778c0 .572-.208 1.066-.624 1.482-.416.416-.91.624-1.482.624h-39.312a2.025 2.025 0 0 1-1.482-.624 2.025 2.025 0 0 1-.624-1.482V2.506c0-.572.208-1.066.624-1.482.416-.416.91-.624 1.482-.624h15.6c.572 0 1.066.208 1.482.624.416.416.624.91.624 1.482V39.01Zm50.578 0h21.606c.572 0 1.066.208 1.482.624.416.416.624.91.624 1.482v11.778c0 .572-.208 1.066-.624 1.482-.416.416-.91.624-1.482.624H166.25a2.025 2.025 0 0 1-1.482-.624 2.025 2.025 0 0 1-.624-1.482V2.506c0-.572.208-1.066.624-1.482.416-.416.91-.624 1.482-.624h15.6c.572 0 1.066.208 1.482.624.416.416.624.91.624 1.482V39.01Z" fill="url(#a)"/><defs><linearGradient id="a" x1="102.5" y1="-5" x2="102.5" y2="68.328" gradientUnits="userSpaceOnUse"><stop stop-color="#fff"/><stop offset="1" stop-color="#fff" stop-opacity="0"/></linearGradient></defs></svg>