<svg width="467" height="131" fill="none" xmlns="http://www.w3.org/2000/svg"><path opacity=".7" d="M5.204.1H59.06c18.201 0 33.161 4.55 44.88 13.651 11.843 8.976 17.765 21.567 17.765 37.774v27.863c0 16.955-5.735 29.795-17.204 38.522C93.031 126.637 77.947 131 59.247 131H5.204c-1.371 0-2.556-.499-3.553-1.496-.997-.997-1.496-2.182-1.496-3.553V5.149c0-1.371.499-2.556 1.496-3.553C2.648.599 3.833.1 5.204.1Zm41.701 36.465v57.97H59.06c4.239 0 7.605-1.247 10.098-3.74 2.618-2.618 3.927-6.42 3.927-11.407V51.525c0-9.973-4.675-14.96-14.025-14.96H46.905Zm140.206 57.97h57.596c1.372 0 2.556.499 3.553 1.496.998.997 1.496 2.182 1.496 3.553v26.367c0 1.371-.498 2.556-1.496 3.553-.997.997-2.181 1.496-3.553 1.496H147.28c-1.371 0-2.555-.499-3.553-1.496-.997-.997-1.496-2.182-1.496-3.553V5.149c0-1.371.499-2.556 1.496-3.553C144.725.599 145.909.1 147.28.1h95.931c1.372 0 2.556.499 3.553 1.496.998.997 1.496 2.182 1.496 3.553v26.367c0 1.371-.498 2.556-1.496 3.553-.997.997-2.181 1.496-3.553 1.496h-56.1v11.781h51.986c1.372 0 2.556.499 3.553 1.496.998.997 1.496 2.182 1.496 3.553v24.31c0 1.371-.498 2.556-1.496 3.553-.997.997-2.181 1.496-3.553 1.496h-51.986v11.781Zm132.642-1.87h51.799c1.371 0 2.555.499 3.553 1.496.997.997 1.496 2.182 1.496 3.553v28.237c0 1.371-.499 2.556-1.496 3.553-.998.997-2.182 1.496-3.553 1.496h-94.248c-1.372 0-2.556-.499-3.553-1.496-.998-.997-1.496-2.182-1.496-3.553V5.149c0-1.371.498-2.556 1.496-3.553C274.748.599 275.932.1 277.304.1h37.4c1.371 0 2.555.499 3.553 1.496.997.997 1.496 2.182 1.496 3.553v87.516Zm121.257 0h51.799c1.372 0 2.556.499 3.553 1.496.998.997 1.496 2.182 1.496 3.553v28.237c0 1.371-.498 2.556-1.496 3.553-.997.997-2.181 1.496-3.553 1.496h-94.248c-1.371 0-2.555-.499-3.553-1.496-.997-.997-1.496-2.182-1.496-3.553V5.149c0-1.371.499-2.556 1.496-3.553C396.006.599 397.19.1 398.561.1h37.4c1.372 0 2.556.499 3.553 1.496.998.997 1.496 2.182 1.496 3.553v87.516Z" fill="url(#a)"/><defs><linearGradient id="a" x1="245.5" y1="-14" x2="245.5" y2="159" gradientUnits="userSpaceOnUse"><stop stop-color="#F2F2F2"/><stop offset="1" stop-color="#F2F2F2" stop-opacity="0"/></linearGradient></defs></svg>