<svg width="24" height="24" fill="none" xmlns="http://www.w3.org/2000/svg"><g clip-path="url(#a)"><path d="M9.95 6.95A2.9 2.9 0 0 1 14.9 9v12a2.9 2.9 0 1 1-5.8 0V9a2.9 2.9 0 0 1 .85-2.05Zm2.828 14.828A1.1 1.1 0 0 0 13.1 21V9a1.1 1.1 0 0 0-2.2 0v12a1.1 1.1 0 0 0 1.878.778ZM18.95.95A2.9 2.9 0 0 1 23.9 3v18a2.9 2.9 0 1 1-5.8 0V3a2.9 2.9 0 0 1 .85-2.05Zm2.828 20.828A1.1 1.1 0 0 0 22.1 21V3a1.1 1.1 0 0 0-2.2 0v18a1.1 1.1 0 0 0 1.878.778Z" fill="#292D32" stroke="#FAFAFA" stroke-width=".2"/><rect x=".75" y="12.75" width="4.5" height="10.5" rx="2.25" stroke="#292D32" stroke-width="1.5"/></g><defs><clipPath id="a"><path fill="#fff" d="M0 0h24v24H0z"/></clipPath></defs></svg>