<svg width="27" height="27" fill="none" xmlns="http://www.w3.org/2000/svg"><path d="m7.318 23.194-.399-.26-.453.144c-.287.092-.672.212-1.11.348-.632.196-1.374.427-2.088.656l.262-.833c.303-.97.614-1.996.693-2.457l.07-.408-.24-.337a12.02 12.02 0 0 1-2.21-6.968C1.842 6.408 7.25 1 13.92 1 20.592 1 26 6.408 26 13.079c0 6.67-5.408 12.079-12.079 12.079a12.01 12.01 0 0 1-6.603-1.964Z" stroke="#292D32" stroke-width="2"/><path d="M20.46 17.218c0 .236-.052.478-.163.713a2.698 2.698 0 0 1-.446.667 2.95 2.95 0 0 1-1.074.772 3.294 3.294 0 0 1-1.277.248c-.668 0-1.382-.157-2.135-.477a11.517 11.517 0 0 1-2.253-1.295 18.82 18.82 0 0 1-2.148-1.83 18.585 18.585 0 0 1-1.827-2.14 11.654 11.654 0 0 1-1.284-2.23c-.314-.745-.472-1.458-.472-2.138 0-.444.08-.87.236-1.262a3.01 3.01 0 0 1 .753-1.092c.42-.412.878-.614 1.363-.614.183 0 .366.039.53.117.17.079.321.196.439.366l1.52 2.139c.117.163.202.314.261.458.06.137.092.274.092.399a.886.886 0 0 1-.137.464c-.086.15-.21.307-.367.464l-.498.517a.35.35 0 0 0-.105.261c0 .053.007.098.02.15.02.053.04.092.052.132.118.215.321.497.61.837.294.34.608.686.949 1.033.354.346.694.667 1.041.961.34.288.622.484.845.602.033.013.072.032.118.052.052.02.105.026.164.026a.36.36 0 0 0 .268-.111l.498-.49a2.01 2.01 0 0 1 .471-.367.874.874 0 0 1 .465-.137c.125 0 .256.026.4.085.144.059.295.144.459.255l2.167 1.537a.99.99 0 0 1 .36.418c.066.164.105.327.105.51Z" fill="#292D32"/></svg>