<svg width="24" height="23" fill="none" xmlns="http://www.w3.org/2000/svg"><mask id="a" fill="#fff"><path d="M17.5.917a6.4 6.4 0 0 0-5.5 3.3 6.4 6.4 0 0 0-5.5-3.3A6.8 6.8 0 0 0 0 7.967c0 4.547 4.786 9.513 8.8 12.88a4.974 4.974 0 0 0 6.4 0c4.014-3.367 8.8-8.333 8.8-12.88a6.8 6.8 0 0 0-6.5-7.05Zm-3.585 18.4a2.973 2.973 0 0 1-3.83 0C4.947 15.006 2 10.87 2 7.967a4.8 4.8 0 0 1 4.5-5.05 4.8 4.8 0 0 1 4.5 5.05 1 1 0 0 0 2 0 4.8 4.8 0 0 1 4.5-5.05 4.8 4.8 0 0 1 4.5 5.05c0 2.903-2.947 7.039-8.085 11.346v.004Z"/></mask><path d="M17.5.917a6.4 6.4 0 0 0-5.5 3.3 6.4 6.4 0 0 0-5.5-3.3A6.8 6.8 0 0 0 0 7.967c0 4.547 4.786 9.513 8.8 12.88a4.974 4.974 0 0 0 6.4 0c4.014-3.367 8.8-8.333 8.8-12.88a6.8 6.8 0 0 0-6.5-7.05Zm-3.585 18.4a2.973 2.973 0 0 1-3.83 0C4.947 15.006 2 10.87 2 7.967a4.8 4.8 0 0 1 4.5-5.05 4.8 4.8 0 0 1 4.5 5.05 1 1 0 0 0 2 0 4.8 4.8 0 0 1 4.5-5.05 4.8 4.8 0 0 1 4.5 5.05c0 2.903-2.947 7.039-8.085 11.346v.004Z" fill="#292D32" stroke="#F9F9F9" stroke-width=".6" mask="url(#a)"/></svg>