<svg width="19" height="19" fill="none" xmlns="http://www.w3.org/2000/svg"><path d="M16.734 14.072c0 .267-.059.54-.185.806a3.05 3.05 0 0 1-.502.754c-.363.4-.762.688-1.213.873-.443.185-.924.28-1.441.28-.754 0-1.56-.177-2.41-.539-.85-.362-1.7-.85-2.543-1.464a21.261 21.261 0 0 1-2.425-2.07 21.008 21.008 0 0 1-2.063-2.417 13.218 13.218 0 0 1-1.449-2.521c-.355-.843-.532-1.649-.532-2.418 0-.502.088-.983.266-1.426.177-.451.458-.865.85-1.235C3.56 2.229 4.077 2 4.625 2c.207 0 .414.044.599.133.192.089.362.222.495.414l1.715 2.418c.133.184.23.354.296.517.066.155.103.31.103.451a1 1 0 0 1-.155.525c-.096.17-.237.347-.414.525l-.562.584a.396.396 0 0 0-.118.296c0 .059.007.11.022.17.022.059.044.103.06.147.132.244.361.562.687.947.332.384.687.776 1.072 1.168.399.392.783.754 1.175 1.087.385.325.703.547.954.68.037.014.081.037.133.059a.51.51 0 0 0 .185.03.407.407 0 0 0 .303-.126l.562-.555c.184-.185.362-.325.532-.414a.985.985 0 0 1 .525-.155c.14 0 .288.03.45.096.164.067.334.163.518.288l2.447 1.738c.193.133.326.288.407.473.074.185.118.37.118.576Z" stroke="#48A4EB" stroke-miterlimit="10"/><path d="M14.169 7.175c0-.444-.348-1.124-.865-1.678-.473-.51-1.101-.91-1.723-.91m5.175 2.588A5.171 5.171 0 0 0 11.581 2" stroke="#48A4EB" stroke-linecap="round" stroke-linejoin="round"/></svg>