<svg width="1491" height="421" fill="none" xmlns="http://www.w3.org/2000/svg"><g opacity=".6"><path d="M23.68 19.82C39.32 7.24 59.975.95 85.645.95s46.24 6.375 61.71 19.125c15.64 12.58 23.46 30.345 23.46 53.295v39.78c0 23.29-7.735 41.055-23.205 53.295-15.3 12.07-35.955 18.105-61.965 18.105-26.01 0-46.75-6.035-62.22-18.105C8.125 154.205.475 136.44.475 113.15V73.37c0-23.12 7.735-40.97 23.205-53.55Zm48.195 109.905c3.4 3.4 7.99 5.1 13.77 5.1 5.78 0 10.37-1.7 13.77-5.1 3.4-3.4 5.1-8.585 5.1-15.555V71.33c0-6.8-1.7-11.9-5.1-15.3-3.4-3.57-7.99-5.355-13.77-5.355-5.78 0-10.37 1.785-13.77 5.355-3.4 3.4-5.1 8.5-5.1 15.3v42.84c0 6.97 1.7 12.155 5.1 15.555ZM304.642 3.5h49.98c1.87 0 3.485.68 4.845 2.04 1.36 1.36 2.04 2.975 2.04 4.845v102.51c0 23.8-7.395 41.735-22.185 53.805-14.79 11.9-34.935 17.85-60.435 17.85-25.33 0-45.475-5.95-60.435-17.85-14.79-11.9-22.185-29.835-22.185-53.805V10.385c0-1.87.68-3.485 2.04-4.845 1.36-1.36 2.975-2.04 4.845-2.04h49.98c1.87 0 3.485.68 4.845 2.04 1.36 1.36 2.04 2.975 2.04 4.845V113.66c0 13.09 6.29 19.635 18.87 19.635 12.58 0 18.87-6.545 18.87-19.635V10.385c0-1.87.68-3.485 2.04-4.845 1.36-1.36 2.975-2.04 4.845-2.04Zm251.637 170.085c.51 1.02.765 2.125.765 3.315s-.595 2.38-1.785 3.57c-1.02 1.02-2.295 1.53-3.825 1.53h-52.275c-5.27 0-8.925-2.295-10.965-6.885l-21.93-48.705h-10.455v48.705c0 1.87-.68 3.485-2.04 4.845-1.36 1.36-2.975 2.04-4.845 2.04h-49.98c-1.87 0-3.485-.68-4.845-2.04-1.36-1.36-2.04-2.975-2.04-4.845V10.385c0-1.87.68-3.485 2.04-4.845 1.36-1.36 2.975-2.04 4.845-2.04h75.48c24.48 0 43.605 5.525 57.375 16.575 13.77 10.88 20.655 26.605 20.655 47.175 0 20.4-9.18 36.465-27.54 48.195l31.365 58.14ZM455.809 50.93v27.03h18.615c3.74 0 6.63-1.19 8.67-3.57 2.04-2.55 3.06-5.695 3.06-9.435s-1.02-6.97-3.06-9.69c-1.87-2.89-4.76-4.335-8.67-4.335h-18.615ZM66.775 307.33v42.84c0 13.77 6.29 20.655 18.87 20.655 9.69 0 16.065-4.59 19.125-13.77.85-2.89 1.87-4.845 3.06-5.865 1.36-1.02 3.485-1.53 6.375-1.53h52.02c1.53 0 2.805.595 3.825 1.785 1.19 1.02 1.785 2.295 1.785 3.825 0 14.79-4.25 27.2-12.75 37.23-15.64 18.7-40.035 28.05-73.185 28.05-26.01 0-46.75-5.695-62.22-17.085C8.21 391.905.475 374.225.475 350.425v-43.35c0-23.29 7.905-40.8 23.715-52.53C40 242.815 60.57 236.95 85.9 236.95c33.15 0 57.545 9.35 73.185 28.05 8.5 10.03 12.75 22.44 12.75 37.23 0 1.53-.595 2.89-1.785 4.08-1.02 1.02-2.295 1.53-3.825 1.53h-52.02c-2.72 0-4.76-.51-6.12-1.53-1.19-1.02-2.295-2.975-3.315-5.865-3.23-9.18-9.605-13.77-19.125-13.77-12.58 0-18.87 6.885-18.87 20.655Zm147.408-51.51c15.64-12.58 36.295-18.87 61.965-18.87s46.24 6.375 61.71 19.125c15.64 12.58 23.46 30.345 23.46 53.295v39.78c0 23.29-7.735 41.055-23.205 53.295-15.3 12.07-35.955 18.105-61.965 18.105-26.01 0-46.75-6.035-62.22-18.105-15.3-12.24-22.95-30.005-22.95-53.295v-39.78c0-23.12 7.735-40.97 23.205-53.55Zm48.195 109.905c3.4 3.4 7.99 5.1 13.77 5.1 5.78 0 10.37-1.7 13.77-5.1 3.4-3.4 5.1-8.585 5.1-15.555v-42.84c0-6.8-1.7-11.9-5.1-15.3-3.4-3.57-7.99-5.355-13.77-5.355-5.78 0-10.37 1.785-13.77 5.355-3.4 3.4-5.1 8.5-5.1 15.3v42.84c0 6.97 1.7 12.155 5.1 15.555ZM496.93 239.5h46.155c1.87 0 3.485.68 4.845 2.04 1.36 1.36 2.04 2.975 2.04 4.845v164.73c0 1.87-.68 3.485-2.04 4.845-1.36 1.36-2.975 2.04-4.845 2.04h-40.29c-4.42 0-7.905-1.955-10.455-5.865l-43.095-65.025v64.005c0 1.87-.68 3.485-2.04 4.845-1.36 1.36-2.975 2.04-4.845 2.04h-46.155c-1.87 0-3.485-.68-4.845-2.04-1.36-1.36-2.04-2.975-2.04-4.845v-164.73c0-1.87.68-3.485 2.04-4.845 1.36-1.36 2.975-2.04 4.845-2.04h40.29c4.76 0 8.245 1.955 10.455 5.865L490.045 316v-69.615c0-1.87.68-3.485 2.04-4.845 1.36-1.36 2.975-2.04 4.845-2.04Zm84.09 0h149.43c1.87 0 3.485.68 4.845 2.04 1.36 1.36 2.04 2.975 2.04 4.845v41.055c0 1.87-.68 3.485-2.04 4.845-1.36 1.36-2.975 2.04-4.845 2.04h-42.33v116.79c0 1.87-.68 3.485-2.04 4.845-1.36 1.36-2.975 2.04-4.845 2.04h-51c-1.87 0-3.485-.68-4.845-2.04-1.36-1.36-2.04-2.975-2.04-4.845v-116.79h-42.33c-1.87 0-3.485-.68-4.845-2.04-1.36-1.36-2.04-2.975-2.04-4.845v-41.055c0-1.87.68-3.485 2.04-4.845 1.36-1.36 2.975-2.04 4.845-2.04Zm236.435 0h55.335c6.12 0 9.945 2.805 11.475 8.415l56.865 162.69c.17.51.255 1.36.255 2.55 0 1.02-.595 2.125-1.785 3.315-1.02 1.02-2.295 1.53-3.825 1.53H888.6c-5.1 0-8.415-2.125-9.945-6.375l-6.12-16.83H817.71l-6.12 16.83c-1.53 4.25-4.845 6.375-9.945 6.375H754.47c-1.53 0-2.89-.51-4.08-1.53-1.02-1.19-1.53-2.295-1.53-3.315 0-1.19.085-2.04.255-2.55l56.865-162.69c1.53-5.61 5.355-8.415 11.475-8.415Zm13.26 105.57h28.815l-14.535-47.43-14.28 47.43Zm192.315-37.74v42.84c0 13.77 6.29 20.655 18.87 20.655 9.69 0 16.06-4.59 19.12-13.77.85-2.89 1.87-4.845 3.06-5.865 1.36-1.02 3.49-1.53 6.38-1.53h52.02c1.53 0 2.8.595 3.82 1.785 1.19 1.02 1.79 2.295 1.79 3.825 0 14.79-4.25 27.2-12.75 37.23-15.64 18.7-40.04 28.05-73.19 28.05-26.01 0-46.75-5.695-62.22-17.085-15.47-11.56-23.205-29.24-23.205-53.04v-43.35c0-23.29 7.905-40.8 23.715-52.53 15.81-11.73 36.38-17.595 61.71-17.595 33.15 0 57.55 9.35 73.19 28.05 8.5 10.03 12.75 22.44 12.75 37.23 0 1.53-.6 2.89-1.79 4.08-1.02 1.02-2.29 1.53-3.82 1.53h-52.02c-2.72 0-4.76-.51-6.12-1.53-1.19-1.02-2.3-2.975-3.32-5.865-3.23-9.18-9.6-13.77-19.12-13.77-12.58 0-18.87 6.885-18.87 20.655Zm127.26-67.83h149.43c1.87 0 3.48.68 4.84 2.04 1.36 1.36 2.04 2.975 2.04 4.845v41.055c0 1.87-.68 3.485-2.04 4.845-1.36 1.36-2.97 2.04-4.84 2.04h-42.33v116.79c0 1.87-.68 3.485-2.04 4.845-1.36 1.36-2.98 2.04-4.85 2.04h-51c-1.87 0-3.48-.68-4.84-2.04-1.36-1.36-2.04-2.975-2.04-4.845v-116.79h-42.33c-1.87 0-3.49-.68-4.85-2.04-1.36-1.36-2.04-2.975-2.04-4.845v-41.055c0-1.87.68-3.485 2.04-4.845 1.36-1.36 2.98-2.04 4.85-2.04Zm176 56.1c0-17.34 7.14-31.45 21.42-42.33 14.45-10.88 33.32-16.32 56.61-16.32 23.46 0 42.58 5.695 57.37 17.085 14.96 11.39 22.44 23.29 22.44 35.7 0 1.53-.59 2.89-1.78 4.08-1.02 1.02-2.21 1.53-3.57 1.53h-51c-3.91 0-7.48-1.445-10.71-4.335-3.23-2.89-7.57-4.335-13.01-4.335-8.16 0-12.24 2.38-12.24 7.14 0 2.55 1.96 4.675 5.87 6.375 4.08 1.7 11.56 3.23 22.44 4.59 25.33 3.23 43.35 9.18 54.06 17.85 10.88 8.5 16.32 21.505 16.32 39.015 0 17.34-7.99 31.535-23.97 42.585-15.81 10.88-36.55 16.32-62.22 16.32s-45.82-5.27-60.44-15.81c-14.62-10.54-21.93-23.375-21.93-38.505 0-1.53.51-2.805 1.53-3.825 1.19-1.19 2.55-1.785 4.08-1.785h48.45c3.57 0 7.48 1.7 11.73 5.1 4.42 3.4 10.46 5.1 18.11 5.1 12.75 0 19.12-2.38 19.12-7.14 0-3.06-2.29-5.355-6.88-6.885-4.59-1.7-13.26-3.4-26.01-5.1-43.86-5.78-65.79-24.48-65.79-56.1Z" fill="url(#a)"/><path d="M23.68 19.82C39.32 7.24 59.975.95 85.645.95s46.24 6.375 61.71 19.125c15.64 12.58 23.46 30.345 23.46 53.295v39.78c0 23.29-7.735 41.055-23.205 53.295-15.3 12.07-35.955 18.105-61.965 18.105-26.01 0-46.75-6.035-62.22-18.105C8.125 154.205.475 136.44.475 113.15V73.37c0-23.12 7.735-40.97 23.205-53.55Zm48.195 109.905c3.4 3.4 7.99 5.1 13.77 5.1 5.78 0 10.37-1.7 13.77-5.1 3.4-3.4 5.1-8.585 5.1-15.555V71.33c0-6.8-1.7-11.9-5.1-15.3-3.4-3.57-7.99-5.355-13.77-5.355-5.78 0-10.37 1.785-13.77 5.355-3.4 3.4-5.1 8.5-5.1 15.3v42.84c0 6.97 1.7 12.155 5.1 15.555ZM304.642 3.5h49.98c1.87 0 3.485.68 4.845 2.04 1.36 1.36 2.04 2.975 2.04 4.845v102.51c0 23.8-7.395 41.735-22.185 53.805-14.79 11.9-34.935 17.85-60.435 17.85-25.33 0-45.475-5.95-60.435-17.85-14.79-11.9-22.185-29.835-22.185-53.805V10.385c0-1.87.68-3.485 2.04-4.845 1.36-1.36 2.975-2.04 4.845-2.04h49.98c1.87 0 3.485.68 4.845 2.04 1.36 1.36 2.04 2.975 2.04 4.845V113.66c0 13.09 6.29 19.635 18.87 19.635 12.58 0 18.87-6.545 18.87-19.635V10.385c0-1.87.68-3.485 2.04-4.845 1.36-1.36 2.975-2.04 4.845-2.04Zm251.637 170.085c.51 1.02.765 2.125.765 3.315s-.595 2.38-1.785 3.57c-1.02 1.02-2.295 1.53-3.825 1.53h-52.275c-5.27 0-8.925-2.295-10.965-6.885l-21.93-48.705h-10.455v48.705c0 1.87-.68 3.485-2.04 4.845-1.36 1.36-2.975 2.04-4.845 2.04h-49.98c-1.87 0-3.485-.68-4.845-2.04-1.36-1.36-2.04-2.975-2.04-4.845V10.385c0-1.87.68-3.485 2.04-4.845 1.36-1.36 2.975-2.04 4.845-2.04h75.48c24.48 0 43.605 5.525 57.375 16.575 13.77 10.88 20.655 26.605 20.655 47.175 0 20.4-9.18 36.465-27.54 48.195l31.365 58.14ZM455.809 50.93v27.03h18.615c3.74 0 6.63-1.19 8.67-3.57 2.04-2.55 3.06-5.695 3.06-9.435s-1.02-6.97-3.06-9.69c-1.87-2.89-4.76-4.335-8.67-4.335h-18.615ZM66.775 307.33v42.84c0 13.77 6.29 20.655 18.87 20.655 9.69 0 16.065-4.59 19.125-13.77.85-2.89 1.87-4.845 3.06-5.865 1.36-1.02 3.485-1.53 6.375-1.53h52.02c1.53 0 2.805.595 3.825 1.785 1.19 1.02 1.785 2.295 1.785 3.825 0 14.79-4.25 27.2-12.75 37.23-15.64 18.7-40.035 28.05-73.185 28.05-26.01 0-46.75-5.695-62.22-17.085C8.21 391.905.475 374.225.475 350.425v-43.35c0-23.29 7.905-40.8 23.715-52.53C40 242.815 60.57 236.95 85.9 236.95c33.15 0 57.545 9.35 73.185 28.05 8.5 10.03 12.75 22.44 12.75 37.23 0 1.53-.595 2.89-1.785 4.08-1.02 1.02-2.295 1.53-3.825 1.53h-52.02c-2.72 0-4.76-.51-6.12-1.53-1.19-1.02-2.295-2.975-3.315-5.865-3.23-9.18-9.605-13.77-19.125-13.77-12.58 0-18.87 6.885-18.87 20.655Zm147.408-51.51c15.64-12.58 36.295-18.87 61.965-18.87s46.24 6.375 61.71 19.125c15.64 12.58 23.46 30.345 23.46 53.295v39.78c0 23.29-7.735 41.055-23.205 53.295-15.3 12.07-35.955 18.105-61.965 18.105-26.01 0-46.75-6.035-62.22-18.105-15.3-12.24-22.95-30.005-22.95-53.295v-39.78c0-23.12 7.735-40.97 23.205-53.55Zm48.195 109.905c3.4 3.4 7.99 5.1 13.77 5.1 5.78 0 10.37-1.7 13.77-5.1 3.4-3.4 5.1-8.585 5.1-15.555v-42.84c0-6.8-1.7-11.9-5.1-15.3-3.4-3.57-7.99-5.355-13.77-5.355-5.78 0-10.37 1.785-13.77 5.355-3.4 3.4-5.1 8.5-5.1 15.3v42.84c0 6.97 1.7 12.155 5.1 15.555ZM496.93 239.5h46.155c1.87 0 3.485.68 4.845 2.04 1.36 1.36 2.04 2.975 2.04 4.845v164.73c0 1.87-.68 3.485-2.04 4.845-1.36 1.36-2.975 2.04-4.845 2.04h-40.29c-4.42 0-7.905-1.955-10.455-5.865l-43.095-65.025v64.005c0 1.87-.68 3.485-2.04 4.845-1.36 1.36-2.975 2.04-4.845 2.04h-46.155c-1.87 0-3.485-.68-4.845-2.04-1.36-1.36-2.04-2.975-2.04-4.845v-164.73c0-1.87.68-3.485 2.04-4.845 1.36-1.36 2.975-2.04 4.845-2.04h40.29c4.76 0 8.245 1.955 10.455 5.865L490.045 316v-69.615c0-1.87.68-3.485 2.04-4.845 1.36-1.36 2.975-2.04 4.845-2.04Zm84.09 0h149.43c1.87 0 3.485.68 4.845 2.04 1.36 1.36 2.04 2.975 2.04 4.845v41.055c0 1.87-.68 3.485-2.04 4.845-1.36 1.36-2.975 2.04-4.845 2.04h-42.33v116.79c0 1.87-.68 3.485-2.04 4.845-1.36 1.36-2.975 2.04-4.845 2.04h-51c-1.87 0-3.485-.68-4.845-2.04-1.36-1.36-2.04-2.975-2.04-4.845v-116.79h-42.33c-1.87 0-3.485-.68-4.845-2.04-1.36-1.36-2.04-2.975-2.04-4.845v-41.055c0-1.87.68-3.485 2.04-4.845 1.36-1.36 2.975-2.04 4.845-2.04Zm236.435 0h55.335c6.12 0 9.945 2.805 11.475 8.415l56.865 162.69c.17.51.255 1.36.255 2.55 0 1.02-.595 2.125-1.785 3.315-1.02 1.02-2.295 1.53-3.825 1.53H888.6c-5.1 0-8.415-2.125-9.945-6.375l-6.12-16.83H817.71l-6.12 16.83c-1.53 4.25-4.845 6.375-9.945 6.375H754.47c-1.53 0-2.89-.51-4.08-1.53-1.02-1.19-1.53-2.295-1.53-3.315 0-1.19.085-2.04.255-2.55l56.865-162.69c1.53-5.61 5.355-8.415 11.475-8.415Zm13.26 105.57h28.815l-14.535-47.43-14.28 47.43Zm192.315-37.74v42.84c0 13.77 6.29 20.655 18.87 20.655 9.69 0 16.06-4.59 19.12-13.77.85-2.89 1.87-4.845 3.06-5.865 1.36-1.02 3.49-1.53 6.38-1.53h52.02c1.53 0 2.8.595 3.82 1.785 1.19 1.02 1.79 2.295 1.79 3.825 0 14.79-4.25 27.2-12.75 37.23-15.64 18.7-40.04 28.05-73.19 28.05-26.01 0-46.75-5.695-62.22-17.085-15.47-11.56-23.205-29.24-23.205-53.04v-43.35c0-23.29 7.905-40.8 23.715-52.53 15.81-11.73 36.38-17.595 61.71-17.595 33.15 0 57.55 9.35 73.19 28.05 8.5 10.03 12.75 22.44 12.75 37.23 0 1.53-.6 2.89-1.79 4.08-1.02 1.02-2.29 1.53-3.82 1.53h-52.02c-2.72 0-4.76-.51-6.12-1.53-1.19-1.02-2.3-2.975-3.32-5.865-3.23-9.18-9.6-13.77-19.12-13.77-12.58 0-18.87 6.885-18.87 20.655Zm127.26-67.83h149.43c1.87 0 3.48.68 4.84 2.04 1.36 1.36 2.04 2.975 2.04 4.845v41.055c0 1.87-.68 3.485-2.04 4.845-1.36 1.36-2.97 2.04-4.84 2.04h-42.33v116.79c0 1.87-.68 3.485-2.04 4.845-1.36 1.36-2.98 2.04-4.85 2.04h-51c-1.87 0-3.48-.68-4.84-2.04-1.36-1.36-2.04-2.975-2.04-4.845v-116.79h-42.33c-1.87 0-3.49-.68-4.85-2.04-1.36-1.36-2.04-2.975-2.04-4.845v-41.055c0-1.87.68-3.485 2.04-4.845 1.36-1.36 2.98-2.04 4.85-2.04Zm176 56.1c0-17.34 7.14-31.45 21.42-42.33 14.45-10.88 33.32-16.32 56.61-16.32 23.46 0 42.58 5.695 57.37 17.085 14.96 11.39 22.44 23.29 22.44 35.7 0 1.53-.59 2.89-1.78 4.08-1.02 1.02-2.21 1.53-3.57 1.53h-51c-3.91 0-7.48-1.445-10.71-4.335-3.23-2.89-7.57-4.335-13.01-4.335-8.16 0-12.24 2.38-12.24 7.14 0 2.55 1.96 4.675 5.87 6.375 4.08 1.7 11.56 3.23 22.44 4.59 25.33 3.23 43.35 9.18 54.06 17.85 10.88 8.5 16.32 21.505 16.32 39.015 0 17.34-7.99 31.535-23.97 42.585-15.81 10.88-36.55 16.32-62.22 16.32s-45.82-5.27-60.44-15.81c-14.62-10.54-21.93-23.375-21.93-38.505 0-1.53.51-2.805 1.53-3.825 1.19-1.19 2.55-1.785 4.08-1.785h48.45c3.57 0 7.48 1.7 11.73 5.1 4.42 3.4 10.46 5.1 18.11 5.1 12.75 0 19.12-2.38 19.12-7.14 0-3.06-2.29-5.355-6.88-6.885-4.59-1.7-13.26-3.4-26.01-5.1-43.86-5.78-65.79-24.48-65.79-56.1Z" fill="url(#b)"/></g><defs><linearGradient id="a" x1="180.921" y1="366.419" x2="2647.18" y2="352.476" gradientUnits="userSpaceOnUse"><stop stop-color="#fff" stop-opacity=".85"/><stop offset="1" stop-color="#fff" stop-opacity="0"/></linearGradient><linearGradient id="b" x1="61.175" y1="669.884" x2="61.175" y2="6.773" gradientUnits="userSpaceOnUse"><stop stop-color="#EEE"/><stop offset="1" stop-color="#EEE" stop-opacity="0"/></linearGradient></defs></svg>