<svg width="293" height="77" fill="none" xmlns="http://www.w3.org/2000/svg"><path d="M2.972 0h31.706C45.393 0 54.2 2.677 61.098 8.03c6.973 5.28 10.459 12.687 10.459 22.22v16.39c0 9.973-3.376 17.527-10.128 22.66-6.752 5.133-15.633 7.7-26.641 7.7H2.972c-.807 0-1.504-.293-2.091-.88C.294 75.533 0 74.837 0 74.03V2.97C0 2.163.294 1.467.88.88 1.469.293 2.166 0 2.973 0Zm24.55 21.45v34.1h7.156c2.495 0 4.477-.733 5.944-2.2 1.542-1.54 2.312-3.777 2.312-6.71V30.25c0-5.867-2.752-8.8-8.256-8.8h-7.156Z" fill="url(#a)" fill-opacity=".7"/><path d="M110.062 55.55h33.907c.807 0 1.504.293 2.092.88.587.587.88 1.283.88 2.09v15.51c0 .807-.293 1.503-.88 2.09-.588.587-1.285.88-2.092.88H86.613c-.807 0-1.504-.293-2.091-.88-.588-.587-.881-1.283-.881-2.09V2.97c0-.807.293-1.503.88-2.09C85.11.293 85.806 0 86.614 0h56.475c.807 0 1.505.293 2.092.88.587.587.881 1.283.881 2.09v15.51c0 .807-.294 1.503-.881 2.09s-1.285.88-2.092.88h-33.026v6.93h30.604c.808 0 1.505.293 2.092.88.587.587.881 1.283.881 2.09v14.3c0 .807-.294 1.503-.881 2.09s-1.284.88-2.092.88h-30.604v6.93Z" fill="url(#b)" fill-opacity=".7"/><path d="M188.148 54.45h30.495c.807 0 1.504.293 2.091.88.587.587.881 1.283.881 2.09v16.61c0 .807-.294 1.503-.881 2.09s-1.284.88-2.091.88h-55.485c-.807 0-1.504-.293-2.091-.88-.587-.587-.881-1.283-.881-2.09V2.97c0-.807.294-1.503.881-2.09s1.284-.88 2.091-.88h22.018c.807 0 1.505.293 2.092.88.587.587.88 1.283.88 2.09v51.48Z" fill="url(#c)" fill-opacity=".7"/><path d="M259.533 54.45h30.495c.807 0 1.504.293 2.091.88.587.587.881 1.283.881 2.09v16.61c0 .807-.294 1.503-.881 2.09s-1.284.88-2.091.88h-55.485c-.807 0-1.504-.293-2.091-.88-.587-.587-.881-1.283-.881-2.09V2.97c0-.807.294-1.503.881-2.09s1.284-.88 2.091-.88h22.018c.807 0 1.505.293 2.092.88.587.587.88 1.283.88 2.09v51.48Z" fill="url(#d)" fill-opacity=".7"/><defs><linearGradient id="a" x1="144.626" y1="4.516" x2="144.626" y2="77" gradientUnits="userSpaceOnUse"><stop stop-color="#fff" stop-opacity=".979"/><stop offset="1" stop-color="#F2F2F2"/></linearGradient><linearGradient id="b" x1="144.626" y1="4.516" x2="144.626" y2="77" gradientUnits="userSpaceOnUse"><stop stop-color="#fff" stop-opacity=".979"/><stop offset="1" stop-color="#F2F2F2"/></linearGradient><linearGradient id="c" x1="144.626" y1="4.516" x2="144.626" y2="77" gradientUnits="userSpaceOnUse"><stop stop-color="#fff" stop-opacity=".979"/><stop offset="1" stop-color="#F2F2F2"/></linearGradient><linearGradient id="d" x1="144.626" y1="4.516" x2="144.626" y2="77" gradientUnits="userSpaceOnUse"><stop stop-color="#fff" stop-opacity=".979"/><stop offset="1" stop-color="#F2F2F2"/></linearGradient></defs></svg>