<svg width="32" height="31" viewBox="0 0 32 31" fill="none" xmlns="http://www.w3.org/2000/svg">
<path d="M17.1521 2.84994L25.3015 7.27623C26.2529 7.79326 26.2529 9.26868 25.3015 9.78572L17.1521 14.212C16.4261 14.6029 15.5748 14.6029 14.8488 14.212L6.69938 9.78572C5.74799 9.26868 5.74799 7.79326 6.69938 7.27623L14.8488 2.84994C15.5748 2.45902 16.4261 2.45902 17.1521 2.84994Z" stroke="white" stroke-width="2" stroke-linecap="round" stroke-linejoin="round"/>
<path d="M5.49762 12.7745L13.0712 16.5955C14.0101 17.0747 14.6109 18.0457 14.6109 19.105V26.3182C14.6109 27.3648 13.5218 28.0332 12.5955 27.5666L5.02193 23.7456C4.08306 23.2664 3.48218 22.2954 3.48218 21.2361V14.0229C3.48218 12.9763 4.57127 12.3079 5.49762 12.7745Z" stroke="white" stroke-width="2" stroke-linecap="round" stroke-linejoin="round"/>
<path d="M26.5033 12.7745L18.9297 16.5955C17.9908 17.0747 17.39 18.0457 17.39 19.105V26.3182C17.39 27.3648 18.479 28.0332 19.4054 27.5666L26.979 23.7456C27.9178 23.2664 28.5187 22.2954 28.5187 21.2361V14.0229C28.5187 12.9763 27.4296 12.3079 26.5033 12.7745Z" stroke="white" stroke-width="2" stroke-linecap="round" stroke-linejoin="round"/>
</svg>
