<svg width="29" height="29" viewBox="0 0 29 29" fill="none" xmlns="http://www.w3.org/2000/svg">
<path d="M21.75 8.65167C21.6775 8.63959 21.5929 8.63959 21.5204 8.65167C19.8529 8.59125 18.5237 7.22584 18.5237 5.53417C18.5237 3.80625 19.9133 2.41667 21.6412 2.41667C23.3692 2.41667 24.7587 3.81834 24.7587 5.53417C24.7467 7.22584 23.4175 8.59125 21.75 8.65167Z" stroke="white" stroke-width="2" stroke-linecap="round" stroke-linejoin="round"/>
<path d="M20.5054 17.4484C22.1608 17.7263 23.9854 17.4363 25.2663 16.5784C26.97 15.4425 26.97 13.5817 25.2663 12.4459C23.9733 11.588 22.1246 11.2979 20.4692 11.5879" stroke="white" stroke-width="2" stroke-linecap="round" stroke-linejoin="round"/>
<path d="M7.21371 8.65167C7.28621 8.63959 7.37079 8.63959 7.44329 8.65167C9.11079 8.59125 10.44 7.22584 10.44 5.53417C10.44 3.80625 9.05037 2.41667 7.32246 2.41667C5.59454 2.41667 4.20496 3.81834 4.20496 5.53417C4.21704 7.22584 5.54621 8.59125 7.21371 8.65167Z" stroke="white" stroke-width="2" stroke-linecap="round" stroke-linejoin="round"/>
<path d="M8.45832 17.4484C6.80291 17.7263 4.97832 17.4363 3.69749 16.5784C1.99374 15.4425 1.99374 13.5817 3.69749 12.4459C4.99041 11.588 6.83915 11.2979 8.49457 11.5879" stroke="white" stroke-width="2" stroke-linecap="round" stroke-linejoin="round"/>
<path d="M14.5 17.6779C14.4275 17.6658 14.3429 17.6658 14.2704 17.6779C12.6029 17.6175 11.2737 16.2521 11.2737 14.5604C11.2737 12.8325 12.6633 11.4429 14.3912 11.4429C16.1192 11.4429 17.5087 12.8446 17.5087 14.5604C17.4967 16.2521 16.1675 17.6296 14.5 17.6779Z" stroke="white" stroke-width="2" stroke-linecap="round" stroke-linejoin="round"/>
<path d="M10.9837 21.4842C9.28 22.62 9.28 24.4808 10.9837 25.6167C12.9171 26.9096 16.0829 26.9096 18.0162 25.6167C19.72 24.4808 19.72 22.62 18.0162 21.4842C16.095 20.2033 12.9171 20.2033 10.9837 21.4842Z" stroke="white" stroke-width="2" stroke-linecap="round" stroke-linejoin="round"/>
</svg>
