<svg width="335" height="121" viewBox="0 0 335 121" fill="none" xmlns="http://www.w3.org/2000/svg">
<g opacity="0.7">
<path d="M27.2724 18.5044C27.7933 17.8876 28.0537 17.1522 28.0537 16.2981C28.0537 15.4441 27.7933 14.6849 27.2724 14.0207C26.799 13.309 26.0887 12.9531 25.1418 12.9531H19.1759V19.4296H25.1418C26.0887 19.4296 26.799 19.1212 27.2724 18.5044ZM19.1759 31.3152V38.2899H25.781C26.87 38.2899 27.6749 37.9341 28.1957 37.2224C28.7639 36.4632 29.048 35.6329 29.048 34.7314V34.6602C29.048 33.7587 28.7402 32.9758 28.1247 32.3116C27.5565 31.6473 26.7753 31.3152 25.781 31.3152H19.1759ZM27.6275 50.5313H3.33803C2.8172 50.5313 2.3674 50.3415 1.98861 49.962C1.60983 49.5824 1.42044 49.1316 1.42044 48.6097V2.63332C1.42044 2.1114 1.60983 1.66065 1.98861 1.28108C2.3674 0.901497 2.8172 0.711708 3.33803 0.711708H26.9173C33.6407 0.711708 38.5886 1.94534 41.7609 4.4126C44.9806 6.83241 46.5904 10.5096 46.5904 15.4441V15.6576C46.5904 17.6978 45.9986 19.5245 44.8148 21.1378C43.6311 22.7035 42.3291 23.8422 40.9086 24.5539C42.8026 25.3131 44.3887 26.6654 45.6671 28.6107C46.9929 30.5086 47.6557 32.5963 47.6557 34.8737C47.6557 45.3121 40.9797 50.5313 27.6275 50.5313Z" fill="url(#paint0_linear_1_655)"/>
<path d="M72.1483 36.653H94.0231C94.5439 36.653 94.9937 36.8428 95.3725 37.2224C95.7513 37.6019 95.9407 38.0527 95.9407 38.5746V48.6097C95.9407 49.1316 95.7513 49.5824 95.3725 49.962C94.9937 50.3415 94.5439 50.5313 94.0231 50.5313H57.0206C56.4998 50.5313 56.05 50.3415 55.6712 49.962C55.2924 49.5824 55.103 49.1316 55.103 48.6097V2.63332C55.103 2.1114 55.2924 1.66065 55.6712 1.28108C56.05 0.901497 56.4998 0.711708 57.0206 0.711708H93.4549C93.9757 0.711708 94.4255 0.901497 94.8043 1.28108C95.1831 1.66065 95.3725 2.1114 95.3725 2.63332V12.6684C95.3725 13.1903 95.1831 13.6411 94.8043 14.0207C94.4255 14.4002 93.9757 14.59 93.4549 14.59H72.1483V19.0738H91.8924C92.4132 19.0738 92.863 19.2636 93.2418 19.6432C93.6206 20.0227 93.81 20.4735 93.81 20.9954V30.2476C93.81 30.7695 93.6206 31.2203 93.2418 31.5999C92.863 31.9794 92.4132 32.1692 91.8924 32.1692H72.1483V36.653Z" fill="url(#paint1_linear_1_655)"/>
<path d="M103.207 16.3693C103.207 11.5297 105.196 7.59156 109.173 4.55494C113.198 1.51831 118.453 0 124.94 0C131.474 0 136.8 1.58948 140.92 4.76845C145.086 7.94741 147.17 11.2687 147.17 14.7324C147.17 15.1594 147.004 15.539 146.673 15.8711C146.388 16.1558 146.057 16.2981 145.678 16.2981H131.474C130.385 16.2981 129.391 15.8948 128.491 15.0882C127.591 14.2816 126.384 13.8783 124.869 13.8783C122.596 13.8783 121.46 14.5426 121.46 15.8711C121.46 16.5828 122.004 17.1759 123.093 17.6504C124.23 18.1248 126.313 18.5519 129.343 18.9315C136.398 19.833 141.417 21.4936 144.4 23.9134C147.43 26.2858 148.945 29.9155 148.945 34.8026C148.945 39.6422 146.72 43.604 142.269 46.6881C137.866 49.7247 132.089 51.243 124.94 51.243C117.79 51.243 112.18 49.7722 108.108 46.8304C104.036 43.8887 102 40.3064 102 36.0836C102 35.6566 102.142 35.3008 102.426 35.0161C102.757 34.6839 103.136 34.5179 103.562 34.5179H117.056C118.051 34.5179 119.14 34.9923 120.323 35.9413C121.554 36.8902 123.235 37.3647 125.366 37.3647C128.917 37.3647 130.693 36.7004 130.693 35.3719C130.693 34.5179 130.053 33.8773 128.775 33.4503C127.497 32.9758 125.082 32.5014 121.531 32.0269C109.315 30.4137 103.207 25.1945 103.207 16.3693Z" fill="url(#paint2_linear_1_655)"/>
<path d="M155.103 0.711708H196.722C197.243 0.711708 197.693 0.901497 198.071 1.28108C198.45 1.66065 198.64 2.1114 198.64 2.63332V14.0918C198.64 14.6138 198.45 15.0645 198.071 15.4441C197.693 15.8237 197.243 16.0134 196.722 16.0134H184.932V48.6097C184.932 49.1316 184.743 49.5824 184.364 49.962C183.985 50.3415 183.536 50.5313 183.015 50.5313H168.81C168.289 50.5313 167.84 50.3415 167.461 49.962C167.082 49.5824 166.893 49.1316 166.893 48.6097V16.0134H155.103C154.582 16.0134 154.132 15.8237 153.754 15.4441C153.375 15.0645 153.185 14.6138 153.185 14.0918V2.63332C153.185 2.1114 153.375 1.66065 153.754 1.28108C154.132 0.901497 154.582 0.711708 155.103 0.711708Z" fill="url(#paint3_linear_1_655)"/>
<path d="M6.463 71.1092C10.819 67.5981 16.5718 65.8426 23.7213 65.8426C30.8709 65.8426 36.6 67.6218 40.9086 71.1804C45.2647 74.6915 47.4427 79.6497 47.4427 86.0551V97.1578C47.4427 102.757 45.7618 107.288 42.4001 110.751L47.9398 118.794C48.0819 119.078 48.1529 119.363 48.1529 119.648C48.1529 119.98 48.0108 120.288 47.7267 120.573C47.49 120.858 47.1586 121 46.7324 121H32.8121C31.6284 121 30.6341 120.454 29.8292 119.363L27.8406 116.872C26.4675 117.014 25.0944 117.086 23.7213 117.086C16.4771 117.086 10.7006 115.401 6.39198 112.032C2.13066 108.616 0 103.658 0 97.1578V86.0551C0 79.6023 2.15433 74.6203 6.463 71.1092ZM19.8861 101.784C20.8331 102.733 22.1115 103.207 23.7213 103.207C25.3312 103.207 26.6096 102.733 27.5565 101.784C28.5035 100.835 28.977 99.3878 28.977 97.4424V85.4857C28.977 83.5878 28.5035 82.1644 27.5565 81.2155C26.6096 80.2191 25.3312 79.7209 23.7213 79.7209C22.1115 79.7209 20.8331 80.2191 19.8861 81.2155C18.9392 82.1644 18.4657 83.5878 18.4657 85.4857V97.4424C18.4657 99.3878 18.9392 100.835 19.8861 101.784Z" fill="url(#paint4_linear_1_655)"/>
<path d="M85.4788 66.5543H99.3991C99.9199 66.5543 100.37 66.7441 100.749 67.1236C101.127 67.5032 101.317 67.954 101.317 68.4759V97.0866C101.317 103.729 99.2571 108.735 95.1378 112.104C91.0185 115.425 85.4078 117.086 78.3056 117.086C71.2507 117.086 65.64 115.425 61.4734 112.104C57.3541 108.782 55.2945 103.777 55.2945 97.0866V68.4759C55.2945 67.954 55.4839 67.5032 55.8626 67.1236C56.2414 66.7441 56.6912 66.5543 57.2121 66.5543H71.1324C71.6532 66.5543 72.103 66.7441 72.4818 67.1236C72.8606 67.5032 73.05 67.954 73.05 68.4759V97.3001C73.05 100.954 74.8018 102.78 78.3056 102.78C81.8093 102.78 83.5612 100.954 83.5612 97.3001V68.4759C83.5612 67.954 83.7506 67.5032 84.1294 67.1236C84.5082 66.7441 84.958 66.5543 85.4788 66.5543Z" fill="url(#paint5_linear_1_655)"/>
<path d="M125.38 66.5543H140.792C142.496 66.5543 143.561 67.3372 143.988 68.9029L159.825 114.31C159.873 114.452 159.896 114.69 159.896 115.022C159.896 115.306 159.731 115.615 159.399 115.947C159.115 116.232 158.76 116.374 158.334 116.374H145.195C143.775 116.374 142.851 115.781 142.425 114.595L140.721 109.897H125.451L123.746 114.595C123.32 115.781 122.397 116.374 120.976 116.374H107.837C107.411 116.374 107.032 116.232 106.701 115.947C106.417 115.615 106.275 115.306 106.275 115.022C106.275 114.69 106.299 114.452 106.346 114.31L122.184 68.9029C122.61 67.3372 123.675 66.5543 125.38 66.5543ZM129.073 96.019H137.098L133.05 82.7812L129.073 96.019Z" fill="url(#paint6_linear_1_655)"/>
<path d="M183.629 101.784H203.302C203.823 101.784 204.273 101.974 204.651 102.353C205.03 102.733 205.22 103.184 205.22 103.705V114.452C205.22 114.974 205.03 115.425 204.651 115.805C204.273 116.184 203.823 116.374 203.302 116.374H167.507C166.986 116.374 166.536 116.184 166.158 115.805C165.779 115.425 165.589 114.974 165.589 114.452V68.4759C165.589 67.954 165.779 67.5032 166.158 67.1236C166.536 66.7441 166.986 66.5543 167.507 66.5543H181.711C182.232 66.5543 182.682 66.7441 183.061 67.1236C183.44 67.5032 183.629 67.954 183.629 68.4759V101.784Z" fill="url(#paint7_linear_1_655)"/>
<path d="M228.049 116.374H213.56C213.039 116.374 212.59 116.184 212.211 115.805C211.832 115.425 211.643 114.974 211.643 114.452V68.4759C211.643 67.954 211.832 67.5032 212.211 67.1236C212.59 66.7441 213.039 66.5543 213.56 66.5543H228.049C228.57 66.5543 229.019 66.7441 229.398 67.1236C229.777 67.5032 229.966 67.954 229.966 68.4759V114.452C229.966 114.974 229.777 115.425 229.398 115.805C229.019 116.184 228.57 116.374 228.049 116.374Z" fill="url(#paint8_linear_1_655)"/>
<path d="M238.609 66.5543H280.228C280.749 66.5543 281.199 66.7441 281.578 67.1236C281.956 67.5032 282.146 67.954 282.146 68.4759V79.9344C282.146 80.4563 281.956 80.9071 281.578 81.2866C281.199 81.6662 280.749 81.856 280.228 81.856H268.439V114.452C268.439 114.974 268.249 115.425 267.87 115.805C267.492 116.184 267.042 116.374 266.521 116.374H252.317C251.796 116.374 251.346 116.184 250.967 115.805C250.588 115.425 250.399 114.974 250.399 114.452V81.856H238.609C238.089 81.856 237.639 81.6662 237.26 81.2866C236.881 80.9071 236.692 80.4563 236.692 79.9344V68.4759C236.692 67.954 236.881 67.5032 237.26 67.1236C237.639 66.7441 238.089 66.5543 238.609 66.5543Z" fill="url(#paint9_linear_1_655)"/>
<path d="M316.96 116.374H303.04C302.519 116.374 302.069 116.184 301.691 115.805C301.312 115.425 301.123 114.974 301.123 114.452V100.432L285.143 68.7606C285.048 68.5708 285.001 68.3098 285.001 67.9777C285.001 67.6456 285.143 67.3372 285.427 67.0525C285.758 66.7203 286.137 66.5543 286.563 66.5543H299.915C301.336 66.5543 302.33 67.1474 302.898 68.3335L310 82.6389L317.102 68.3335C317.671 67.1474 318.665 66.5543 320.085 66.5543H333.438C333.864 66.5543 334.219 66.7203 334.503 67.0525C334.834 67.3372 335 67.6456 335 67.9777C335 68.3098 334.953 68.5708 334.858 68.7606L318.878 100.432V114.452C318.878 114.974 318.689 115.425 318.31 115.805C317.931 116.184 317.481 116.374 316.96 116.374Z" fill="url(#paint10_linear_1_655)"/>
</g>
<defs>
<linearGradient id="paint0_linear_1_655" x1="167.143" y1="-4.65464" x2="167.143" y2="127.03" gradientUnits="userSpaceOnUse">
<stop stop-color="white" stop-opacity="0.95"/>
<stop offset="1" stop-color="white" stop-opacity="0"/>
</linearGradient>
<linearGradient id="paint1_linear_1_655" x1="167.143" y1="-4.65464" x2="167.143" y2="127.03" gradientUnits="userSpaceOnUse">
<stop stop-color="white" stop-opacity="0.95"/>
<stop offset="1" stop-color="white" stop-opacity="0"/>
</linearGradient>
<linearGradient id="paint2_linear_1_655" x1="167.143" y1="-4.65464" x2="167.143" y2="127.03" gradientUnits="userSpaceOnUse">
<stop stop-color="white" stop-opacity="0.95"/>
<stop offset="1" stop-color="white" stop-opacity="0"/>
</linearGradient>
<linearGradient id="paint3_linear_1_655" x1="167.143" y1="-4.65464" x2="167.143" y2="127.03" gradientUnits="userSpaceOnUse">
<stop stop-color="white" stop-opacity="0.95"/>
<stop offset="1" stop-color="white" stop-opacity="0"/>
</linearGradient>
<linearGradient id="paint4_linear_1_655" x1="167.143" y1="-4.65464" x2="167.143" y2="127.03" gradientUnits="userSpaceOnUse">
<stop stop-color="white" stop-opacity="0.95"/>
<stop offset="1" stop-color="white" stop-opacity="0"/>
</linearGradient>
<linearGradient id="paint5_linear_1_655" x1="167.143" y1="-4.65464" x2="167.143" y2="127.03" gradientUnits="userSpaceOnUse">
<stop stop-color="white" stop-opacity="0.95"/>
<stop offset="1" stop-color="white" stop-opacity="0"/>
</linearGradient>
<linearGradient id="paint6_linear_1_655" x1="167.143" y1="-4.65464" x2="167.143" y2="127.03" gradientUnits="userSpaceOnUse">
<stop stop-color="white" stop-opacity="0.95"/>
<stop offset="1" stop-color="white" stop-opacity="0"/>
</linearGradient>
<linearGradient id="paint7_linear_1_655" x1="167.143" y1="-4.65464" x2="167.143" y2="127.03" gradientUnits="userSpaceOnUse">
<stop stop-color="white" stop-opacity="0.95"/>
<stop offset="1" stop-color="white" stop-opacity="0"/>
</linearGradient>
<linearGradient id="paint8_linear_1_655" x1="167.143" y1="-4.65464" x2="167.143" y2="127.03" gradientUnits="userSpaceOnUse">
<stop stop-color="white" stop-opacity="0.95"/>
<stop offset="1" stop-color="white" stop-opacity="0"/>
</linearGradient>
<linearGradient id="paint9_linear_1_655" x1="167.143" y1="-4.65464" x2="167.143" y2="127.03" gradientUnits="userSpaceOnUse">
<stop stop-color="white" stop-opacity="0.95"/>
<stop offset="1" stop-color="white" stop-opacity="0"/>
</linearGradient>
<linearGradient id="paint10_linear_1_655" x1="167.143" y1="-4.65464" x2="167.143" y2="127.03" gradientUnits="userSpaceOnUse">
<stop stop-color="white" stop-opacity="0.95"/>
<stop offset="1" stop-color="white" stop-opacity="0"/>
</linearGradient>
</defs>
</svg>
