<svg width="30" height="30" viewBox="0 0 30 30" fill="none" xmlns="http://www.w3.org/2000/svg">
<path d="M10.4753 15.0001L13.4878 18.0251L19.5253 11.9751" stroke="white" stroke-width="2" stroke-linecap="round" stroke-linejoin="round"/>
<path d="M13.4378 3.06248C14.3003 2.32498 15.7128 2.32498 16.5878 3.06248L18.5628 4.76248C18.9378 5.08748 19.6378 5.34998 20.1378 5.34998H22.2628C23.5878 5.34998 24.6753 6.43749 24.6753 7.76249V9.88749C24.6753 10.375 24.9378 11.0875 25.2628 11.4625L26.9628 13.4375C27.7003 14.3 27.7003 15.7125 26.9628 16.5875L25.2628 18.5625C24.9378 18.9375 24.6753 19.6375 24.6753 20.1375V22.2625C24.6753 23.5875 23.5878 24.675 22.2628 24.675H20.1378C19.6503 24.675 18.9378 24.9375 18.5628 25.2625L16.5878 26.9625C15.7253 27.7 14.3128 27.7 13.4378 26.9625L11.4628 25.2625C11.0878 24.9375 10.3878 24.675 9.88778 24.675H7.72528C6.40028 24.675 5.31278 23.5875 5.31278 22.2625V20.125C5.31278 19.6375 5.05028 18.9375 4.73778 18.5625L3.05028 16.575C2.32528 15.7125 2.32528 14.3125 3.05028 13.45L4.73778 11.4625C5.05028 11.0875 5.31278 10.3875 5.31278 9.89999V7.74999C5.31278 6.42499 6.40028 5.33748 7.72528 5.33748H9.88778C10.3753 5.33748 11.0878 5.07498 11.4628 4.74998L13.4378 3.06248Z" stroke="white" stroke-width="2" stroke-linecap="round" stroke-linejoin="round"/>
</svg>
