<svg width="324" height="143" viewBox="0 0 324 143" fill="none" xmlns="http://www.w3.org/2000/svg">
<path d="M0 0L196.922 0C207.913 0 218.421 4.52312 225.976 12.5069L232.712 19.6255C240.267 27.6092 250.774 32.1324 261.766 32.1324H289.279C307.468 32.1324 322.593 18.1346 324 0V0V98C324 122.853 303.853 143 279 143H0V0Z" fill="white"/>
<path d="M249.585 24.7881C243.944 31.3684 239.629 25.8404 236.424 23.8481L241.423 34.4948L259.887 45.6519L298.353 47.2458C305.277 39.2764 318.078 19.7738 312.098 24.7881C302.009 33.2486 301.288 25.7281 296.587 19.6177C283.765 19.2192 258.513 14.3712 249.585 24.7881Z" fill="white"/>
</svg>
