<svg width="467" height="131" viewBox="0 0 467 131" fill="none" xmlns="http://www.w3.org/2000/svg">
<path opacity="0.7" d="M5.204 0.0999911H59.06C77.2613 0.0999911 92.2213 4.65033 103.94 13.751C115.783 22.727 121.705 35.3183 121.705 51.525V79.388C121.705 96.3427 115.97 109.183 104.501 117.91C93.0317 126.637 77.947 131 59.247 131H5.204C3.83267 131 2.64833 130.501 1.651 129.504C0.653668 128.507 0.155001 127.322 0.155001 125.951V5.14899C0.155001 3.77766 0.653668 2.59333 1.651 1.59599C2.64833 0.598659 3.83267 0.0999911 5.204 0.0999911ZM46.905 36.565V94.535H59.06C63.2987 94.535 66.6647 93.2883 69.158 90.795C71.776 88.177 73.085 84.3747 73.085 79.388V51.525C73.085 41.5517 68.41 36.565 59.06 36.565H46.905ZM187.111 94.535H244.707C246.079 94.535 247.263 95.0337 248.26 96.031C249.258 97.0283 249.756 98.2127 249.756 99.584V125.951C249.756 127.322 249.258 128.507 248.26 129.504C247.263 130.501 246.079 131 244.707 131H147.28C145.909 131 144.725 130.501 143.727 129.504C142.73 128.507 142.231 127.322 142.231 125.951V5.14899C142.231 3.77766 142.73 2.59333 143.727 1.59599C144.725 0.598659 145.909 0.0999911 147.28 0.0999911H243.211C244.583 0.0999911 245.767 0.598659 246.764 1.59599C247.762 2.59333 248.26 3.77766 248.26 5.14899V31.516C248.26 32.8873 247.762 34.0717 246.764 35.069C245.767 36.0663 244.583 36.565 243.211 36.565H187.111V48.346H239.097C240.469 48.346 241.653 48.8447 242.65 49.842C243.648 50.8393 244.146 52.0237 244.146 53.395V77.705C244.146 79.0763 243.648 80.2607 242.65 81.258C241.653 82.2553 240.469 82.754 239.097 82.754H187.111V94.535ZM319.753 92.665H371.552C372.923 92.665 374.107 93.1637 375.105 94.161C376.102 95.1583 376.601 96.3427 376.601 97.714V125.951C376.601 127.322 376.102 128.507 375.105 129.504C374.107 130.501 372.923 131 371.552 131H277.304C275.932 131 274.748 130.501 273.751 129.504C272.753 128.507 272.255 127.322 272.255 125.951V5.14899C272.255 3.77766 272.753 2.59333 273.751 1.59599C274.748 0.598659 275.932 0.0999911 277.304 0.0999911H314.704C316.075 0.0999911 317.259 0.598659 318.257 1.59599C319.254 2.59333 319.753 3.77766 319.753 5.14899V92.665ZM441.01 92.665H492.809C494.181 92.665 495.365 93.1637 496.362 94.161C497.36 95.1583 497.858 96.3427 497.858 97.714V125.951C497.858 127.322 497.36 128.507 496.362 129.504C495.365 130.501 494.181 131 492.809 131H398.561C397.19 131 396.006 130.501 395.008 129.504C394.011 128.507 393.512 127.322 393.512 125.951V5.14899C393.512 3.77766 394.011 2.59333 395.008 1.59599C396.006 0.598659 397.19 0.0999911 398.561 0.0999911H435.961C437.333 0.0999911 438.517 0.598659 439.514 1.59599C440.512 2.59333 441.01 3.77766 441.01 5.14899V92.665Z" fill="url(#paint0_linear_1_378)"/>
<defs>
<linearGradient id="paint0_linear_1_378" x1="245.5" y1="-14" x2="245.5" y2="159" gradientUnits="userSpaceOnUse">
<stop stop-color="#F2F2F2"/>
<stop offset="1" stop-color="#F2F2F2" stop-opacity="0"/>
</linearGradient>
</defs>
</svg>
