<svg width="208" height="55" viewBox="0 0 208 55" fill="none" xmlns="http://www.w3.org/2000/svg">
<path opacity="0.7" d="M2.176 0.399996H24.64C32.232 0.399996 38.472 2.298 43.36 6.094C48.3 9.838 50.77 15.09 50.77 21.85V33.472C50.77 40.544 48.378 45.9 43.594 49.54C38.81 53.18 32.518 55 24.718 55H2.176C1.604 55 1.11 54.792 0.694 54.376C0.278 53.96 0.0700004 53.466 0.0700004 52.894V2.506C0.0700004 1.934 0.278 1.44 0.694 1.024C1.11 0.607997 1.604 0.399996 2.176 0.399996ZM19.57 15.61V39.79H24.64C26.408 39.79 27.812 39.27 28.852 38.23C29.944 37.138 30.49 35.552 30.49 33.472V21.85C30.49 17.69 28.54 15.61 24.64 15.61H19.57ZM78.0517 39.79H102.076C102.648 39.79 103.142 39.998 103.558 40.414C103.974 40.83 104.182 41.324 104.182 41.896V52.894C104.182 53.466 103.974 53.96 103.558 54.376C103.142 54.792 102.648 55 102.076 55H61.4377C60.8657 55 60.3717 54.792 59.9557 54.376C59.5397 53.96 59.3317 53.466 59.3317 52.894V2.506C59.3317 1.934 59.5397 1.44 59.9557 1.024C60.3717 0.607997 60.8657 0.399996 61.4377 0.399996H101.452C102.024 0.399996 102.518 0.607997 102.934 1.024C103.35 1.44 103.558 1.934 103.558 2.506V13.504C103.558 14.076 103.35 14.57 102.934 14.986C102.518 15.402 102.024 15.61 101.452 15.61H78.0517V20.524H99.7357C100.308 20.524 100.802 20.732 101.218 21.148C101.634 21.564 101.842 22.058 101.842 22.63V32.77C101.842 33.342 101.634 33.836 101.218 34.252C100.802 34.668 100.308 34.876 99.7357 34.876H78.0517V39.79ZM133.378 39.01H154.984C155.556 39.01 156.05 39.218 156.466 39.634C156.882 40.05 157.09 40.544 157.09 41.116V52.894C157.09 53.466 156.882 53.96 156.466 54.376C156.05 54.792 155.556 55 154.984 55H115.672C115.1 55 114.606 54.792 114.19 54.376C113.774 53.96 113.566 53.466 113.566 52.894V2.506C113.566 1.934 113.774 1.44 114.19 1.024C114.606 0.607997 115.1 0.399996 115.672 0.399996H131.272C131.844 0.399996 132.338 0.607997 132.754 1.024C133.17 1.44 133.378 1.934 133.378 2.506V39.01ZM183.956 39.01H205.562C206.134 39.01 206.628 39.218 207.044 39.634C207.46 40.05 207.668 40.544 207.668 41.116V52.894C207.668 53.466 207.46 53.96 207.044 54.376C206.628 54.792 206.134 55 205.562 55H166.25C165.678 55 165.184 54.792 164.768 54.376C164.352 53.96 164.144 53.466 164.144 52.894V2.506C164.144 1.934 164.352 1.44 164.768 1.024C165.184 0.607997 165.678 0.399996 166.25 0.399996H181.85C182.422 0.399996 182.916 0.607997 183.332 1.024C183.748 1.44 183.956 1.934 183.956 2.506V39.01Z" fill="url(#paint0_linear_1_614)"/>
<defs>
<linearGradient id="paint0_linear_1_614" x1="102.5" y1="-5" x2="102.5" y2="68.3284" gradientUnits="userSpaceOnUse">
<stop stop-color="white"/>
<stop offset="1" stop-color="white" stop-opacity="0"/>
</linearGradient>
</defs>
</svg>
