<svg width="27" height="27" viewBox="0 0 27 27" fill="none" xmlns="http://www.w3.org/2000/svg">
<path d="M7.31753 23.1944L6.91935 22.9339L6.46605 23.0785C6.17873 23.1702 5.79383 23.2898 5.3568 23.4256C4.72385 23.6222 3.98155 23.8528 3.26793 24.0819C3.35419 23.8085 3.44262 23.5278 3.52971 23.2487C3.83252 22.2786 4.14434 21.2532 4.22293 20.7923L4.29247 20.3845L4.05349 20.0467C2.66067 18.0781 1.84241 15.6755 1.84241 13.0788C1.84241 6.40786 7.25027 1 13.9212 1C20.5921 1 26 6.40786 26 13.0788C26 19.7497 20.5921 25.1576 13.9212 25.1576C11.4822 25.1576 9.21492 24.4358 7.31753 23.1944Z" stroke="#292D32" stroke-width="2"/>
<path d="M20.4603 17.2184C20.4603 17.4538 20.4079 17.6958 20.2965 17.9312C20.1852 18.1666 20.0411 18.3889 19.8512 18.5982C19.5303 18.9513 19.1766 19.2064 18.7771 19.3699C18.3842 19.5333 17.9585 19.6184 17.5 19.6184C16.832 19.6184 16.1181 19.4614 15.365 19.141C14.6118 18.8205 13.8587 18.3889 13.112 17.8462C12.3589 17.2969 11.645 16.6887 10.9639 16.0151C10.2893 15.335 9.68025 14.6223 9.13666 13.8768C8.59963 13.1313 8.16738 12.3858 7.85301 11.6468C7.53865 10.9013 7.38147 10.1885 7.38147 9.50844C7.38147 9.06376 7.46006 8.6387 7.61724 8.24633C7.77442 7.84743 8.02329 7.48122 8.3704 7.15425C8.78955 6.74227 9.248 6.53955 9.73264 6.53955C9.91602 6.53955 10.0994 6.57879 10.2631 6.65726C10.4334 6.73573 10.584 6.85344 10.7019 7.02347L12.2213 9.16185C12.3392 9.32534 12.4244 9.47574 12.4833 9.61961C12.5423 9.75694 12.575 9.89426 12.575 10.0185C12.575 10.1755 12.5292 10.3324 12.4375 10.4828C12.3523 10.6332 12.2279 10.7902 12.0707 10.9471L11.573 11.4637C11.5009 11.5357 11.4682 11.6207 11.4682 11.7253C11.4682 11.7776 11.4747 11.8234 11.4878 11.8757C11.5075 11.928 11.5271 11.9673 11.5402 12.0065C11.6581 12.2223 11.8611 12.5035 12.1493 12.8435C12.444 13.1836 12.7584 13.5302 13.0989 13.8768C13.4526 14.2233 13.7932 14.5438 14.1403 14.8381C14.4808 15.1258 14.7624 15.322 14.9851 15.4397C15.0179 15.4528 15.0572 15.4724 15.103 15.492C15.1554 15.5116 15.2078 15.5181 15.2667 15.5181C15.3781 15.5181 15.4632 15.4789 15.5353 15.407L16.033 14.9165C16.1967 14.753 16.3539 14.6288 16.5045 14.5503C16.6552 14.4588 16.8058 14.413 16.9695 14.413C17.094 14.413 17.225 14.4391 17.369 14.498C17.5131 14.5569 17.6638 14.6419 17.8275 14.753L19.9953 16.2898C20.1656 16.4075 20.2834 16.5448 20.3555 16.7083C20.421 16.8718 20.4603 17.0353 20.4603 17.2184Z" fill="#292D32"/>
</svg>
