<svg width="20" height="20" viewBox="0 0 20 20" fill="none" xmlns="http://www.w3.org/2000/svg">
<path d="M18.9431 17.8579L14.3668 13.2817C15.6139 11.7564 16.2271 9.81023 16.0795 7.84561C15.9318 5.88098 15.0348 4.04825 13.5738 2.7265C12.1128 1.40475 10.1996 0.6951 8.2301 0.744345C6.26056 0.79359 4.38528 1.59796 2.99217 2.99107C1.59906 4.38419 0.794688 6.25946 0.745444 8.229C0.696199 10.1985 1.40585 12.1117 2.7276 13.5727C4.04935 15.0337 5.88208 15.9307 7.8467 16.0784C9.81133 16.226 11.7575 15.6128 13.2828 14.3657L17.859 18.942C18.0036 19.0817 18.1973 19.1589 18.3983 19.1572C18.5993 19.1554 18.7916 19.0748 18.9338 18.9327C19.0759 18.7905 19.1565 18.5982 19.1583 18.3972C19.16 18.1962 19.0828 18.0025 18.9431 17.8579ZM8.43431 14.5666C7.22124 14.5666 6.03542 14.2069 5.02679 13.5329C4.01816 12.859 3.23203 11.9011 2.7678 10.7804C2.30358 9.65963 2.18212 8.42641 2.41878 7.23665C2.65544 6.04689 3.23959 4.95403 4.09735 4.09626C4.95512 3.23849 6.04799 2.65434 7.23775 2.41768C8.42751 2.18102 9.66073 2.30248 10.7815 2.76671C11.9022 3.23093 12.8601 4.01706 13.534 5.02569C14.208 6.03432 14.5677 7.22014 14.5677 8.43321C14.5659 10.0593 13.9191 11.6183 12.7693 12.7682C11.6194 13.918 10.0604 14.5648 8.43431 14.5666Z" fill="#292D32"/>
</svg>
