<svg width="21" height="23" viewBox="0 0 21 23" fill="none" xmlns="http://www.w3.org/2000/svg">
<path d="M15.2719 7.55088V5.54409C15.2719 4.91876 15.1488 4.29954 14.9095 3.7218C14.6701 3.14407 14.3194 2.61912 13.8772 2.17694C13.435 1.73476 12.9101 1.38401 12.3323 1.1447C11.7546 0.905396 11.1354 0.782227 10.5101 0.782227C9.88472 0.782227 9.26551 0.905396 8.68777 1.1447C8.11004 1.38401 7.58509 1.73476 7.14291 2.17694C6.70073 2.61912 6.34998 3.14407 6.11067 3.7218C5.87136 4.29954 5.74819 4.91876 5.74819 5.54409V10.306C5.74819 10.4864 5.81987 10.6594 5.94744 10.787C6.07501 10.9146 6.24804 10.9862 6.42846 10.9862C6.60888 10.9862 6.78191 10.9146 6.90948 10.787C7.03706 10.6594 7.10873 10.4864 7.10873 10.306V8.91141H12.5509V7.55088H7.10873V5.54409C7.10873 4.642 7.46708 3.77686 8.10495 3.13899C8.74283 2.50111 9.60797 2.14276 10.5101 2.14276C11.4121 2.14276 12.2773 2.50111 12.9152 3.13899C13.553 3.77686 13.9114 4.642 13.9114 5.54409V10.2719C13.9114 10.4524 13.9831 10.6254 14.1106 10.753C14.2382 10.8805 14.4112 10.9522 14.5917 10.9522C14.7721 10.9522 14.9451 10.8805 15.0727 10.753C15.2003 10.6254 15.2719 10.4524 15.2719 10.2719V8.91141H18.6733V21.1562H2.34686V8.91141H4.38766V7.55088H0.986328V21.2174C0.986328 21.562 1.12322 21.8925 1.36689 22.1362C1.61055 22.3799 1.94104 22.5167 2.28564 22.5167H18.7345C19.0791 22.5167 19.4096 22.3799 19.6532 22.1362C19.8969 21.8925 20.0338 21.562 20.0338 21.2174V7.55088H15.2719Z" fill="#292D32"/>
</svg>
