<svg width="1491" height="421" viewBox="0 0 1491 421" fill="none" xmlns="http://www.w3.org/2000/svg">
<g opacity="0.6">
<path d="M23.68 19.82C39.32 7.23999 59.975 0.94999 85.645 0.94999C111.315 0.94999 131.885 7.32499 147.355 20.075C162.995 32.655 170.815 50.42 170.815 73.37V113.15C170.815 136.44 163.08 154.205 147.61 166.445C132.31 178.515 111.655 184.55 85.645 184.55C59.635 184.55 38.895 178.515 23.425 166.445C8.125 154.205 0.475 136.44 0.475 113.15V73.37C0.475 50.25 8.21 32.4 23.68 19.82ZM71.875 129.725C75.275 133.125 79.865 134.825 85.645 134.825C91.425 134.825 96.015 133.125 99.415 129.725C102.815 126.325 104.515 121.14 104.515 114.17V71.33C104.515 64.53 102.815 59.43 99.415 56.03C96.015 52.46 91.425 50.675 85.645 50.675C79.865 50.675 75.275 52.46 71.875 56.03C68.475 59.43 66.775 64.53 66.775 71.33V114.17C66.775 121.14 68.475 126.325 71.875 129.725ZM304.642 3.49999H354.622C356.492 3.49999 358.107 4.17999 359.467 5.53999C360.827 6.89999 361.507 8.51499 361.507 10.385V112.895C361.507 136.695 354.112 154.63 339.322 166.7C324.532 178.6 304.387 184.55 278.887 184.55C253.557 184.55 233.412 178.6 218.452 166.7C203.662 154.8 196.267 136.865 196.267 112.895V10.385C196.267 8.51499 196.947 6.89999 198.307 5.53999C199.667 4.17999 201.282 3.49999 203.152 3.49999H253.132C255.002 3.49999 256.617 4.17999 257.977 5.53999C259.337 6.89999 260.017 8.51499 260.017 10.385V113.66C260.017 126.75 266.307 133.295 278.887 133.295C291.467 133.295 297.757 126.75 297.757 113.66V10.385C297.757 8.51499 298.437 6.89999 299.797 5.53999C301.157 4.17999 302.772 3.49999 304.642 3.49999ZM556.279 173.585C556.789 174.605 557.044 175.71 557.044 176.9C557.044 178.09 556.449 179.28 555.259 180.47C554.239 181.49 552.964 182 551.434 182H499.159C493.889 182 490.234 179.705 488.194 175.115L466.264 126.41H455.809V175.115C455.809 176.985 455.129 178.6 453.769 179.96C452.409 181.32 450.794 182 448.924 182H398.944C397.074 182 395.459 181.32 394.099 179.96C392.739 178.6 392.059 176.985 392.059 175.115V10.385C392.059 8.51499 392.739 6.89999 394.099 5.53999C395.459 4.17999 397.074 3.49999 398.944 3.49999H474.424C498.904 3.49999 518.029 9.02499 531.799 20.075C545.569 30.955 552.454 46.68 552.454 67.25C552.454 87.65 543.274 103.715 524.914 115.445L556.279 173.585ZM455.809 50.93V77.96H474.424C478.164 77.96 481.054 76.77 483.094 74.39C485.134 71.84 486.154 68.695 486.154 64.955C486.154 61.215 485.134 57.985 483.094 55.265C481.224 52.375 478.334 50.93 474.424 50.93H455.809ZM66.775 307.33V350.17C66.775 363.94 73.065 370.825 85.645 370.825C95.335 370.825 101.71 366.235 104.77 357.055C105.62 354.165 106.64 352.21 107.83 351.19C109.19 350.17 111.315 349.66 114.205 349.66H166.225C167.755 349.66 169.03 350.255 170.05 351.445C171.24 352.465 171.835 353.74 171.835 355.27C171.835 370.06 167.585 382.47 159.085 392.5C143.445 411.2 119.05 420.55 85.9 420.55C59.89 420.55 39.15 414.855 23.68 403.465C8.21 391.905 0.475 374.225 0.475 350.425V307.075C0.475 283.785 8.38 266.275 24.19 254.545C40 242.815 60.57 236.95 85.9 236.95C119.05 236.95 143.445 246.3 159.085 265C167.585 275.03 171.835 287.44 171.835 302.23C171.835 303.76 171.24 305.12 170.05 306.31C169.03 307.33 167.755 307.84 166.225 307.84H114.205C111.485 307.84 109.445 307.33 108.085 306.31C106.895 305.29 105.79 303.335 104.77 300.445C101.54 291.265 95.165 286.675 85.645 286.675C73.065 286.675 66.775 293.56 66.775 307.33ZM214.183 255.82C229.823 243.24 250.478 236.95 276.148 236.95C301.818 236.95 322.388 243.325 337.858 256.075C353.498 268.655 361.318 286.42 361.318 309.37V349.15C361.318 372.44 353.583 390.205 338.113 402.445C322.813 414.515 302.158 420.55 276.148 420.55C250.138 420.55 229.398 414.515 213.928 402.445C198.628 390.205 190.978 372.44 190.978 349.15V309.37C190.978 286.25 198.713 268.4 214.183 255.82ZM262.378 365.725C265.778 369.125 270.368 370.825 276.148 370.825C281.928 370.825 286.518 369.125 289.918 365.725C293.318 362.325 295.018 357.14 295.018 350.17V307.33C295.018 300.53 293.318 295.43 289.918 292.03C286.518 288.46 281.928 286.675 276.148 286.675C270.368 286.675 265.778 288.46 262.378 292.03C258.978 295.43 257.278 300.53 257.278 307.33V350.17C257.278 357.14 258.978 362.325 262.378 365.725ZM496.93 239.5H543.085C544.955 239.5 546.57 240.18 547.93 241.54C549.29 242.9 549.97 244.515 549.97 246.385V411.115C549.97 412.985 549.29 414.6 547.93 415.96C546.57 417.32 544.955 418 543.085 418H502.795C498.375 418 494.89 416.045 492.34 412.135L449.245 347.11V411.115C449.245 412.985 448.565 414.6 447.205 415.96C445.845 417.32 444.23 418 442.36 418H396.205C394.335 418 392.72 417.32 391.36 415.96C390 414.6 389.32 412.985 389.32 411.115V246.385C389.32 244.515 390 242.9 391.36 241.54C392.72 240.18 394.335 239.5 396.205 239.5H436.495C441.255 239.5 444.74 241.455 446.95 245.365L490.045 316V246.385C490.045 244.515 490.725 242.9 492.085 241.54C493.445 240.18 495.06 239.5 496.93 239.5ZM581.02 239.5H730.45C732.32 239.5 733.935 240.18 735.295 241.54C736.655 242.9 737.335 244.515 737.335 246.385V287.44C737.335 289.31 736.655 290.925 735.295 292.285C733.935 293.645 732.32 294.325 730.45 294.325H688.12V411.115C688.12 412.985 687.44 414.6 686.08 415.96C684.72 417.32 683.105 418 681.235 418H630.235C628.365 418 626.75 417.32 625.39 415.96C624.03 414.6 623.35 412.985 623.35 411.115V294.325H581.02C579.15 294.325 577.535 293.645 576.175 292.285C574.815 290.925 574.135 289.31 574.135 287.44V246.385C574.135 244.515 574.815 242.9 576.175 241.54C577.535 240.18 579.15 239.5 581.02 239.5ZM817.455 239.5H872.79C878.91 239.5 882.735 242.305 884.265 247.915L941.13 410.605C941.3 411.115 941.385 411.965 941.385 413.155C941.385 414.175 940.79 415.28 939.6 416.47C938.58 417.49 937.305 418 935.775 418H888.6C883.5 418 880.185 415.875 878.655 411.625L872.535 394.795H817.71L811.59 411.625C810.06 415.875 806.745 418 801.645 418H754.47C752.94 418 751.58 417.49 750.39 416.47C749.37 415.28 748.86 414.175 748.86 413.155C748.86 411.965 748.945 411.115 749.115 410.605L805.98 247.915C807.51 242.305 811.335 239.5 817.455 239.5ZM830.715 345.07H859.53L844.995 297.64L830.715 345.07ZM1023.03 307.33V350.17C1023.03 363.94 1029.32 370.825 1041.9 370.825C1051.59 370.825 1057.96 366.235 1061.02 357.055C1061.87 354.165 1062.89 352.21 1064.08 351.19C1065.44 350.17 1067.57 349.66 1070.46 349.66H1122.48C1124.01 349.66 1125.28 350.255 1126.3 351.445C1127.49 352.465 1128.09 353.74 1128.09 355.27C1128.09 370.06 1123.84 382.47 1115.34 392.5C1099.7 411.2 1075.3 420.55 1042.15 420.55C1016.14 420.55 995.4 414.855 979.93 403.465C964.46 391.905 956.725 374.225 956.725 350.425V307.075C956.725 283.785 964.63 266.275 980.44 254.545C996.25 242.815 1016.82 236.95 1042.15 236.95C1075.3 236.95 1099.7 246.3 1115.34 265C1123.84 275.03 1128.09 287.44 1128.09 302.23C1128.09 303.76 1127.49 305.12 1126.3 306.31C1125.28 307.33 1124.01 307.84 1122.48 307.84H1070.46C1067.74 307.84 1065.7 307.33 1064.34 306.31C1063.15 305.29 1062.04 303.335 1061.02 300.445C1057.79 291.265 1051.42 286.675 1041.9 286.675C1029.32 286.675 1023.03 293.56 1023.03 307.33ZM1150.29 239.5H1299.72C1301.59 239.5 1303.2 240.18 1304.56 241.54C1305.92 242.9 1306.6 244.515 1306.6 246.385V287.44C1306.6 289.31 1305.92 290.925 1304.56 292.285C1303.2 293.645 1301.59 294.325 1299.72 294.325H1257.39V411.115C1257.39 412.985 1256.71 414.6 1255.35 415.96C1253.99 417.32 1252.37 418 1250.5 418H1199.5C1197.63 418 1196.02 417.32 1194.66 415.96C1193.3 414.6 1192.62 412.985 1192.62 411.115V294.325H1150.29C1148.42 294.325 1146.8 293.645 1145.44 292.285C1144.08 290.925 1143.4 289.31 1143.4 287.44V246.385C1143.4 244.515 1144.08 242.9 1145.44 241.54C1146.8 240.18 1148.42 239.5 1150.29 239.5ZM1326.29 295.6C1326.29 278.26 1333.43 264.15 1347.71 253.27C1362.16 242.39 1381.03 236.95 1404.32 236.95C1427.78 236.95 1446.9 242.645 1461.69 254.035C1476.65 265.425 1484.13 277.325 1484.13 289.735C1484.13 291.265 1483.54 292.625 1482.35 293.815C1481.33 294.835 1480.14 295.345 1478.78 295.345H1427.78C1423.87 295.345 1420.3 293.9 1417.07 291.01C1413.84 288.12 1409.5 286.675 1404.06 286.675C1395.9 286.675 1391.82 289.055 1391.82 293.815C1391.82 296.365 1393.78 298.49 1397.69 300.19C1401.77 301.89 1409.25 303.42 1420.13 304.78C1445.46 308.01 1463.48 313.96 1474.19 322.63C1485.07 331.13 1490.51 344.135 1490.51 361.645C1490.51 378.985 1482.52 393.18 1466.54 404.23C1450.73 415.11 1429.99 420.55 1404.32 420.55C1378.65 420.55 1358.5 415.28 1343.88 404.74C1329.26 394.2 1321.95 381.365 1321.95 366.235C1321.95 364.705 1322.46 363.43 1323.48 362.41C1324.67 361.22 1326.03 360.625 1327.56 360.625H1376.01C1379.58 360.625 1383.49 362.325 1387.74 365.725C1392.16 369.125 1398.2 370.825 1405.85 370.825C1418.6 370.825 1424.97 368.445 1424.97 363.685C1424.97 360.625 1422.68 358.33 1418.09 356.8C1413.5 355.1 1404.83 353.4 1392.08 351.7C1348.22 345.92 1326.29 327.22 1326.29 295.6Z" fill="url(#paint0_linear_1_220)"/>
<path d="M23.68 19.82C39.32 7.23999 59.975 0.94999 85.645 0.94999C111.315 0.94999 131.885 7.32499 147.355 20.075C162.995 32.655 170.815 50.42 170.815 73.37V113.15C170.815 136.44 163.08 154.205 147.61 166.445C132.31 178.515 111.655 184.55 85.645 184.55C59.635 184.55 38.895 178.515 23.425 166.445C8.125 154.205 0.475 136.44 0.475 113.15V73.37C0.475 50.25 8.21 32.4 23.68 19.82ZM71.875 129.725C75.275 133.125 79.865 134.825 85.645 134.825C91.425 134.825 96.015 133.125 99.415 129.725C102.815 126.325 104.515 121.14 104.515 114.17V71.33C104.515 64.53 102.815 59.43 99.415 56.03C96.015 52.46 91.425 50.675 85.645 50.675C79.865 50.675 75.275 52.46 71.875 56.03C68.475 59.43 66.775 64.53 66.775 71.33V114.17C66.775 121.14 68.475 126.325 71.875 129.725ZM304.642 3.49999H354.622C356.492 3.49999 358.107 4.17999 359.467 5.53999C360.827 6.89999 361.507 8.51499 361.507 10.385V112.895C361.507 136.695 354.112 154.63 339.322 166.7C324.532 178.6 304.387 184.55 278.887 184.55C253.557 184.55 233.412 178.6 218.452 166.7C203.662 154.8 196.267 136.865 196.267 112.895V10.385C196.267 8.51499 196.947 6.89999 198.307 5.53999C199.667 4.17999 201.282 3.49999 203.152 3.49999H253.132C255.002 3.49999 256.617 4.17999 257.977 5.53999C259.337 6.89999 260.017 8.51499 260.017 10.385V113.66C260.017 126.75 266.307 133.295 278.887 133.295C291.467 133.295 297.757 126.75 297.757 113.66V10.385C297.757 8.51499 298.437 6.89999 299.797 5.53999C301.157 4.17999 302.772 3.49999 304.642 3.49999ZM556.279 173.585C556.789 174.605 557.044 175.71 557.044 176.9C557.044 178.09 556.449 179.28 555.259 180.47C554.239 181.49 552.964 182 551.434 182H499.159C493.889 182 490.234 179.705 488.194 175.115L466.264 126.41H455.809V175.115C455.809 176.985 455.129 178.6 453.769 179.96C452.409 181.32 450.794 182 448.924 182H398.944C397.074 182 395.459 181.32 394.099 179.96C392.739 178.6 392.059 176.985 392.059 175.115V10.385C392.059 8.51499 392.739 6.89999 394.099 5.53999C395.459 4.17999 397.074 3.49999 398.944 3.49999H474.424C498.904 3.49999 518.029 9.02499 531.799 20.075C545.569 30.955 552.454 46.68 552.454 67.25C552.454 87.65 543.274 103.715 524.914 115.445L556.279 173.585ZM455.809 50.93V77.96H474.424C478.164 77.96 481.054 76.77 483.094 74.39C485.134 71.84 486.154 68.695 486.154 64.955C486.154 61.215 485.134 57.985 483.094 55.265C481.224 52.375 478.334 50.93 474.424 50.93H455.809ZM66.775 307.33V350.17C66.775 363.94 73.065 370.825 85.645 370.825C95.335 370.825 101.71 366.235 104.77 357.055C105.62 354.165 106.64 352.21 107.83 351.19C109.19 350.17 111.315 349.66 114.205 349.66H166.225C167.755 349.66 169.03 350.255 170.05 351.445C171.24 352.465 171.835 353.74 171.835 355.27C171.835 370.06 167.585 382.47 159.085 392.5C143.445 411.2 119.05 420.55 85.9 420.55C59.89 420.55 39.15 414.855 23.68 403.465C8.21 391.905 0.475 374.225 0.475 350.425V307.075C0.475 283.785 8.38 266.275 24.19 254.545C40 242.815 60.57 236.95 85.9 236.95C119.05 236.95 143.445 246.3 159.085 265C167.585 275.03 171.835 287.44 171.835 302.23C171.835 303.76 171.24 305.12 170.05 306.31C169.03 307.33 167.755 307.84 166.225 307.84H114.205C111.485 307.84 109.445 307.33 108.085 306.31C106.895 305.29 105.79 303.335 104.77 300.445C101.54 291.265 95.165 286.675 85.645 286.675C73.065 286.675 66.775 293.56 66.775 307.33ZM214.183 255.82C229.823 243.24 250.478 236.95 276.148 236.95C301.818 236.95 322.388 243.325 337.858 256.075C353.498 268.655 361.318 286.42 361.318 309.37V349.15C361.318 372.44 353.583 390.205 338.113 402.445C322.813 414.515 302.158 420.55 276.148 420.55C250.138 420.55 229.398 414.515 213.928 402.445C198.628 390.205 190.978 372.44 190.978 349.15V309.37C190.978 286.25 198.713 268.4 214.183 255.82ZM262.378 365.725C265.778 369.125 270.368 370.825 276.148 370.825C281.928 370.825 286.518 369.125 289.918 365.725C293.318 362.325 295.018 357.14 295.018 350.17V307.33C295.018 300.53 293.318 295.43 289.918 292.03C286.518 288.46 281.928 286.675 276.148 286.675C270.368 286.675 265.778 288.46 262.378 292.03C258.978 295.43 257.278 300.53 257.278 307.33V350.17C257.278 357.14 258.978 362.325 262.378 365.725ZM496.93 239.5H543.085C544.955 239.5 546.57 240.18 547.93 241.54C549.29 242.9 549.97 244.515 549.97 246.385V411.115C549.97 412.985 549.29 414.6 547.93 415.96C546.57 417.32 544.955 418 543.085 418H502.795C498.375 418 494.89 416.045 492.34 412.135L449.245 347.11V411.115C449.245 412.985 448.565 414.6 447.205 415.96C445.845 417.32 444.23 418 442.36 418H396.205C394.335 418 392.72 417.32 391.36 415.96C390 414.6 389.32 412.985 389.32 411.115V246.385C389.32 244.515 390 242.9 391.36 241.54C392.72 240.18 394.335 239.5 396.205 239.5H436.495C441.255 239.5 444.74 241.455 446.95 245.365L490.045 316V246.385C490.045 244.515 490.725 242.9 492.085 241.54C493.445 240.18 495.06 239.5 496.93 239.5ZM581.02 239.5H730.45C732.32 239.5 733.935 240.18 735.295 241.54C736.655 242.9 737.335 244.515 737.335 246.385V287.44C737.335 289.31 736.655 290.925 735.295 292.285C733.935 293.645 732.32 294.325 730.45 294.325H688.12V411.115C688.12 412.985 687.44 414.6 686.08 415.96C684.72 417.32 683.105 418 681.235 418H630.235C628.365 418 626.75 417.32 625.39 415.96C624.03 414.6 623.35 412.985 623.35 411.115V294.325H581.02C579.15 294.325 577.535 293.645 576.175 292.285C574.815 290.925 574.135 289.31 574.135 287.44V246.385C574.135 244.515 574.815 242.9 576.175 241.54C577.535 240.18 579.15 239.5 581.02 239.5ZM817.455 239.5H872.79C878.91 239.5 882.735 242.305 884.265 247.915L941.13 410.605C941.3 411.115 941.385 411.965 941.385 413.155C941.385 414.175 940.79 415.28 939.6 416.47C938.58 417.49 937.305 418 935.775 418H888.6C883.5 418 880.185 415.875 878.655 411.625L872.535 394.795H817.71L811.59 411.625C810.06 415.875 806.745 418 801.645 418H754.47C752.94 418 751.58 417.49 750.39 416.47C749.37 415.28 748.86 414.175 748.86 413.155C748.86 411.965 748.945 411.115 749.115 410.605L805.98 247.915C807.51 242.305 811.335 239.5 817.455 239.5ZM830.715 345.07H859.53L844.995 297.64L830.715 345.07ZM1023.03 307.33V350.17C1023.03 363.94 1029.32 370.825 1041.9 370.825C1051.59 370.825 1057.96 366.235 1061.02 357.055C1061.87 354.165 1062.89 352.21 1064.08 351.19C1065.44 350.17 1067.57 349.66 1070.46 349.66H1122.48C1124.01 349.66 1125.28 350.255 1126.3 351.445C1127.49 352.465 1128.09 353.74 1128.09 355.27C1128.09 370.06 1123.84 382.47 1115.34 392.5C1099.7 411.2 1075.3 420.55 1042.15 420.55C1016.14 420.55 995.4 414.855 979.93 403.465C964.46 391.905 956.725 374.225 956.725 350.425V307.075C956.725 283.785 964.63 266.275 980.44 254.545C996.25 242.815 1016.82 236.95 1042.15 236.95C1075.3 236.95 1099.7 246.3 1115.34 265C1123.84 275.03 1128.09 287.44 1128.09 302.23C1128.09 303.76 1127.49 305.12 1126.3 306.31C1125.28 307.33 1124.01 307.84 1122.48 307.84H1070.46C1067.74 307.84 1065.7 307.33 1064.34 306.31C1063.15 305.29 1062.04 303.335 1061.02 300.445C1057.79 291.265 1051.42 286.675 1041.9 286.675C1029.32 286.675 1023.03 293.56 1023.03 307.33ZM1150.29 239.5H1299.72C1301.59 239.5 1303.2 240.18 1304.56 241.54C1305.92 242.9 1306.6 244.515 1306.6 246.385V287.44C1306.6 289.31 1305.92 290.925 1304.56 292.285C1303.2 293.645 1301.59 294.325 1299.72 294.325H1257.39V411.115C1257.39 412.985 1256.71 414.6 1255.35 415.96C1253.99 417.32 1252.37 418 1250.5 418H1199.5C1197.63 418 1196.02 417.32 1194.66 415.96C1193.3 414.6 1192.62 412.985 1192.62 411.115V294.325H1150.29C1148.42 294.325 1146.8 293.645 1145.44 292.285C1144.08 290.925 1143.4 289.31 1143.4 287.44V246.385C1143.4 244.515 1144.08 242.9 1145.44 241.54C1146.8 240.18 1148.42 239.5 1150.29 239.5ZM1326.29 295.6C1326.29 278.26 1333.43 264.15 1347.71 253.27C1362.16 242.39 1381.03 236.95 1404.32 236.95C1427.78 236.95 1446.9 242.645 1461.69 254.035C1476.65 265.425 1484.13 277.325 1484.13 289.735C1484.13 291.265 1483.54 292.625 1482.35 293.815C1481.33 294.835 1480.14 295.345 1478.78 295.345H1427.78C1423.87 295.345 1420.3 293.9 1417.07 291.01C1413.84 288.12 1409.5 286.675 1404.06 286.675C1395.9 286.675 1391.82 289.055 1391.82 293.815C1391.82 296.365 1393.78 298.49 1397.69 300.19C1401.77 301.89 1409.25 303.42 1420.13 304.78C1445.46 308.01 1463.48 313.96 1474.19 322.63C1485.07 331.13 1490.51 344.135 1490.51 361.645C1490.51 378.985 1482.52 393.18 1466.54 404.23C1450.73 415.11 1429.99 420.55 1404.32 420.55C1378.65 420.55 1358.5 415.28 1343.88 404.74C1329.26 394.2 1321.95 381.365 1321.95 366.235C1321.95 364.705 1322.46 363.43 1323.48 362.41C1324.67 361.22 1326.03 360.625 1327.56 360.625H1376.01C1379.58 360.625 1383.49 362.325 1387.74 365.725C1392.16 369.125 1398.2 370.825 1405.85 370.825C1418.6 370.825 1424.97 368.445 1424.97 363.685C1424.97 360.625 1422.68 358.33 1418.09 356.8C1413.5 355.1 1404.83 353.4 1392.08 351.7C1348.22 345.92 1326.29 327.22 1326.29 295.6Z" fill="url(#paint1_linear_1_220)"/>
</g>
<defs>
<linearGradient id="paint0_linear_1_220" x1="180.921" y1="366.419" x2="2647.18" y2="352.476" gradientUnits="userSpaceOnUse">
<stop stop-color="white" stop-opacity="0.85"/>
<stop offset="1" stop-color="white" stop-opacity="0"/>
</linearGradient>
<linearGradient id="paint1_linear_1_220" x1="61.1753" y1="669.884" x2="61.1753" y2="6.77305" gradientUnits="userSpaceOnUse">
<stop stop-color="#EEEEEE"/>
<stop offset="1" stop-color="#EEEEEE" stop-opacity="0"/>
</linearGradient>
</defs>
</svg>
